<svg width="125" height="28" viewBox="0 0 125 28" fill="none" xmlns="http://www.w3.org/2000/svg">
<g clip-path="url(#clip0_514_1888)">
<path d="M17.6504 6.30078H52.7141C55.8974 6.30078 58.478 8.88136 58.478 12.0647V15.9073C58.478 19.0906 55.8974 21.6712 52.7141 21.6712H17.6504V6.30078Z" fill="url(#paint0_linear_514_1888)"/>
<path d="M1.21856 5.19723L12.0908 1.49805L23.0909 5.19723C23.0909 5.19723 26.3525 18.9696 12.1547 25.5143C12.1547 25.5143 -1.59542 20.1647 1.21856 5.19723Z" fill="white"/>
<path d="M12.3747 25.0341L12.3752 25.0342C12.3751 25.0342 12.375 25.0341 12.3747 25.0341ZM13.4571 24.2788C12.6415 24.7188 11.6111 24.7186 10.7977 24.2756C10.6412 24.1904 10.4761 24.0978 10.3036 23.9975C9.19017 23.35 7.53573 22.2433 5.97732 20.6481C4.23298 18.8626 2.95929 16.8382 2.19162 14.6313C1.3924 12.3336 1.14144 9.82713 1.44138 7.16102C1.53466 6.3319 2.15408 5.61884 3.04651 5.3213L11.1982 2.60357C11.7733 2.41183 12.4091 2.41076 12.985 2.60054L21.2447 5.32224C22.1564 5.62268 22.7871 6.35532 22.8627 7.20266C22.8773 7.36616 22.8904 7.53981 22.9013 7.72271C22.9744 8.94972 22.9583 10.8574 22.4667 12.9774C21.917 15.3475 20.896 17.498 19.432 19.3689C17.9134 21.3097 15.9082 22.9564 13.4571 24.2788Z" fill="url(#paint1_radial_514_1888)"/>
<path d="M12.2105 23.7591C12.0841 23.759 11.9578 23.7447 11.8353 23.7166C11.7128 23.6887 11.5945 23.6461 11.484 23.5913C11.4283 23.5642 11.3761 23.5326 11.3231 23.5023L11.1644 23.4108C11.0587 23.3496 10.9522 23.2895 10.8481 23.226L10.8566 23.2148C10.9604 23.2784 11.0667 23.3387 11.1722 23.4L11.3306 23.4917C11.3836 23.5221 11.4357 23.5538 11.4906 23.5807C11.6001 23.6351 11.7172 23.6774 11.8386 23.7053C11.9599 23.7334 12.0852 23.7478 12.2105 23.7481V23.7591Z" fill="white"/>
<path d="M9.62936 22.4287C9.43166 22.2891 9.2373 22.1457 9.04506 22.0001C8.85299 21.8543 8.66393 21.7053 8.47803 21.5531L8.50267 21.5293C8.68641 21.6829 8.87337 21.8335 9.06341 21.9809C9.25329 22.1286 9.44713 22.2721 9.64344 22.4128L9.62936 22.4287Z" fill="white"/>
<path d="M7.40274 20.6028L6.89729 20.0995C6.81484 20.0142 6.73586 19.9263 6.65494 19.8398L6.41357 19.5792L6.46778 19.541L6.70502 19.803C6.78456 19.89 6.8622 19.9785 6.94332 20.0643L7.4412 20.5709L7.40274 20.6028Z" fill="white"/>
<path d="M5.52073 18.4862C5.38032 18.2986 5.24396 18.1086 5.11268 17.9157C4.9815 17.7228 4.85486 17.5274 4.73291 17.3297L4.82 17.2871C4.93971 17.4845 5.0641 17.6796 5.19306 17.8724C5.32192 18.0651 5.45475 18.2558 5.5923 18.4438L5.52073 18.4862Z" fill="white"/>
<path d="M4.05976 16.1175C3.85545 15.7044 3.6698 15.2838 3.50635 14.8564L3.6111 14.8242C3.77436 15.2487 3.95579 15.6678 4.15798 16.0788L4.05976 16.1175Z" fill="white"/>
<path d="M3.0771 13.5585C2.95482 13.1202 2.85328 12.6775 2.771 12.232L2.87227 12.2168C2.95626 12.6596 3.05983 13.0994 3.18311 13.5346L3.0771 13.5585Z" fill="white"/>
<path d="M2.58385 10.8883C2.5406 10.4386 2.51583 9.9876 2.5083 9.53648L2.58668 9.53516C2.59835 9.9846 2.62724 10.4336 2.67449 10.881L2.58385 10.8883Z" fill="white"/>
<path d="M2.53613 8.18458C2.54913 7.95936 2.56606 7.73434 2.58691 7.50963C2.59727 7.39727 2.60874 7.28501 2.62103 7.17281C2.62757 7.11695 2.63233 7.06052 2.64252 7.0036C2.65251 6.94701 2.66637 6.89098 2.68404 6.83594L2.73439 6.84869C2.71784 6.90201 2.70499 6.95622 2.69586 7.01093C2.68663 7.06531 2.68241 7.12132 2.67639 7.17746C2.66522 7.28949 2.65485 7.4016 2.6456 7.51376C2.62697 7.73807 2.61227 7.96265 2.60146 8.18733L2.53613 8.18458Z" fill="white"/>
<path d="M3.71973 5.90443L5.13129 5.42383L5.14508 5.45612L3.73515 5.94054L3.71973 5.90443Z" fill="white"/>
<path d="M6.5415 4.94114L7.95159 4.45703L7.96674 4.49248L6.55527 4.97337L6.5415 4.94114Z" fill="white"/>
<path d="M9.36084 3.97325L10.7697 3.48633L10.7901 3.53398L9.37744 4.01211L9.36084 3.97325Z" fill="white"/>
<path d="M12.2175 3.0957C12.3462 3.0982 12.4747 3.11537 12.5987 3.14682C12.6607 3.1622 12.7216 3.18283 12.7799 3.20248L12.9568 3.26155L13.6644 3.49785L13.6362 3.5645L12.9308 3.32315L12.7545 3.26281C12.6951 3.24235 12.6384 3.22267 12.5792 3.20751C12.4612 3.17668 12.3388 3.1594 12.2158 3.15613L12.2175 3.0957Z" fill="white"/>
<path d="M15.0783 3.96875L16.4926 4.44298L16.4573 4.52653L15.0459 4.04553L15.0783 3.96875Z" fill="white"/>
<path d="M17.9063 4.91797L19.3202 5.3931L19.28 5.48829L17.8682 5.00819L17.9063 4.91797Z" fill="white"/>
<path d="M20.7332 5.86914L20.8215 5.89887L20.8657 5.91374L20.9112 5.93041C20.9262 5.93612 20.9416 5.9412 20.9564 5.94744L21.0007 5.96647C21.0305 5.97854 21.0588 5.99341 21.0874 6.00754C21.201 6.06565 21.3069 6.13625 21.4003 6.21841C21.5875 6.38214 21.7283 6.58807 21.8049 6.81248L21.6873 6.84423C21.6174 6.63753 21.4883 6.44712 21.316 6.29554C21.2301 6.21947 21.1326 6.1541 21.028 6.10021C21.0016 6.08714 20.9756 6.07324 20.9481 6.06209L20.9073 6.04439C20.8937 6.03857 20.8795 6.03391 20.8656 6.02859L20.8238 6.01308L20.7797 5.99809L20.6914 5.96812L20.7332 5.86914Z" fill="white"/>
<path d="M21.9282 8.17188C21.9408 8.62333 21.9379 9.07515 21.9177 9.52638L21.7866 9.52168C21.8066 9.07292 21.8122 8.62361 21.8008 8.17459L21.9282 8.17188Z" fill="white"/>
<path d="M21.8089 10.8756C21.756 11.3248 21.6872 11.7725 21.5998 12.2175L21.4702 12.1972C21.5559 11.7548 21.6254 11.3099 21.6778 10.8633L21.8089 10.8756Z" fill="white"/>
<path d="M21.2843 13.5434C21.1611 13.9815 21.0199 14.4157 20.8599 14.8442L20.7422 14.8092C20.8999 14.383 21.0391 13.9513 21.1603 13.5156L21.2843 13.5434Z" fill="white"/>
<path d="M20.3226 16.1091C20.1245 16.5248 19.9064 16.9327 19.6691 17.3315L19.5757 17.2875C19.8073 16.8891 20.0202 16.4821 20.2151 16.0684L20.3226 16.1091Z" fill="white"/>
<path d="M18.9007 18.4967L18.6899 18.778C18.6205 18.8722 18.5474 18.9643 18.4743 19.0563C18.3277 19.24 18.1765 19.4207 18.021 19.5984L17.9639 19.5589C18.1164 19.3803 18.2645 19.1988 18.408 19.0144C18.4795 18.9221 18.5509 18.8297 18.6188 18.7352L18.8248 18.4531L18.9007 18.4967Z" fill="white"/>
<path d="M17.0382 20.627C16.6943 20.9569 16.3348 21.2736 15.9615 21.5765L15.9355 21.5513C16.3044 21.2453 16.6591 20.926 16.9979 20.5938L17.0382 20.627Z" fill="white"/>
<path d="M14.8033 22.4449C14.4051 22.7211 13.9943 22.9824 13.5748 23.2316L13.5659 23.2196C13.985 22.9703 14.3923 22.7054 14.7883 22.4277L14.8033 22.4449Z" fill="white"/>
<path d="M16.1379 14.9237C16.0631 15.6434 15.8961 16.3371 15.3834 16.9438C14.886 17.5322 14.1548 17.9751 13.3265 18.1854C12.9561 18.2794 12.5693 18.3267 12.1821 18.3267C11.5136 18.3267 10.8498 18.1845 10.2672 17.9116C9.70054 17.6462 9.2185 17.2623 8.87168 16.8055C8.69558 16.5736 8.55443 16.3235 8.45209 16.0628C8.33548 15.7659 8.28643 15.4538 8.24294 15.1446C8.16029 14.5569 8.22291 13.9908 8.33487 13.4098C8.45783 12.869 8.6487 12.3396 8.87884 11.8239C9.10998 11.3059 9.38178 10.8007 9.68019 10.3071C9.95691 9.84933 10.2569 9.40136 10.5749 8.96247C10.8375 8.59984 11.1124 8.24333 11.3988 7.89329C11.5897 7.65996 11.7856 7.4293 11.988 7.20275C12.0355 7.14963 12.0833 7.09673 12.1318 7.04424C12.1404 7.03493 12.1821 7.00265 12.1821 6.99023C12.8522 7.76485 13.4853 8.56261 14.0567 9.39015C14.4939 10.0232 14.8958 10.6742 15.2381 11.3466C15.4912 11.8438 15.7125 12.3533 15.8797 12.8751C15.997 13.2413 16.0883 13.6143 16.1349 13.9915C16.1644 14.2303 16.177 14.4716 16.1574 14.7113C16.1516 14.7823 16.1452 14.8531 16.1379 14.9237Z" fill="white"/>
<path d="M12.1823 17.779C11.347 17.779 10.549 17.5205 9.93518 17.0511C9.65733 16.8386 9.42766 16.588 9.24858 16.3122C8.73225 15.517 8.7076 14.4978 8.88233 13.6249C8.956 13.257 9.06637 12.8945 9.20054 12.5388C9.3384 12.1732 9.50162 11.8145 9.68235 11.4621C9.86102 11.1138 10.0569 10.7716 10.2658 10.435C10.4626 10.1177 10.6711 9.80534 10.8889 9.49759C11.082 9.22474 11.2825 8.9555 11.4897 8.68986C11.6575 8.47477 11.8296 8.26202 12.0063 8.05188C12.0215 8.03381 12.1818 7.86543 12.1735 7.85547C12.7097 8.49682 13.178 9.10883 13.5967 9.71514C14.0458 10.3655 14.411 10.9702 14.7133 11.5639C14.9711 12.0703 15.1671 12.5369 15.3123 12.9901C15.4301 13.358 15.5065 13.6915 15.5459 14.0096C15.575 14.2451 15.5816 14.4515 15.5663 14.6405C15.5609 14.7068 15.5548 14.7729 15.548 14.8387C15.4895 15.4023 15.3667 16.0529 14.9004 16.6047C14.4763 17.1064 13.8561 17.4809 13.154 17.6591C12.8405 17.7387 12.5136 17.779 12.1823 17.779Z" fill="url(#paint2_linear_514_1888)"/>
<path d="M10.063 13.192L12.2535 13.9549L16.6898 9.59766L12.5728 15.7702L10.063 13.192Z" fill="white"/>
<path d="M11.843 17.3736C11.0826 17.3095 10.4176 17.0166 9.94238 16.5907C10.4025 17.099 11.1062 17.4541 11.9264 17.5229C13.4656 17.6521 14.8507 16.7325 15.0321 15.4521C15.0355 15.4283 15.0384 15.4046 15.0409 15.3809C14.8194 16.6255 13.411 17.506 11.843 17.3736Z" fill="white"/>
<path opacity="0.9" d="M28.007 13.2227L26.8551 9.36037H27.5578L28.1707 11.3998C28.2024 11.5055 28.2324 11.6182 28.2606 11.738C28.2887 11.8542 28.3169 11.9969 28.3451 12.1659C28.3768 11.9933 28.4067 11.8507 28.4349 11.738C28.4666 11.6217 28.4983 11.509 28.53 11.3998L29.1429 9.36037H29.8879L30.4849 11.3998C30.5166 11.509 30.5466 11.6235 30.5748 11.7433C30.6065 11.863 30.6382 12.0039 30.6699 12.1659C30.7051 11.9863 30.7368 11.8401 30.765 11.7274C30.7967 11.6112 30.8266 11.5055 30.8548 11.4104L31.4783 9.36037H32.1651L30.9922 13.2227H30.337L29.5128 10.4118L28.6674 13.2227H28.007ZM33.2268 13.2913C32.952 13.2913 32.7337 13.2174 32.5716 13.0694C32.4131 12.918 32.3339 12.7207 32.3339 12.4777C32.3339 12.2382 32.4166 12.0479 32.5822 11.907C32.7513 11.7626 32.9908 11.6781 33.3008 11.6534L34.0827 11.59V11.5319C34.0827 11.4122 34.0598 11.317 34.014 11.2466C33.9718 11.1726 33.9101 11.1198 33.8291 11.0881C33.7481 11.0529 33.653 11.0353 33.5438 11.0353C33.3536 11.0353 33.2074 11.074 33.1053 11.1515C33.0031 11.2255 32.952 11.3311 32.952 11.4685H32.4025C32.4025 11.2783 32.4501 11.1145 32.5452 10.9771C32.6438 10.8362 32.7812 10.7271 32.9573 10.6496C33.137 10.5721 33.343 10.5333 33.5755 10.5333C33.8115 10.5333 34.014 10.5756 34.1831 10.6601C34.3522 10.7411 34.4825 10.8644 34.5741 11.03C34.6657 11.192 34.7115 11.3945 34.7115 11.6376V13.2227H34.1461L34.0986 12.837C34.0422 12.9708 33.933 13.08 33.771 13.1645C33.6125 13.2491 33.4311 13.2913 33.2268 13.2913ZM33.4328 12.8053C33.6336 12.8053 33.7921 12.7489 33.9084 12.6362C34.0281 12.5235 34.088 12.3667 34.088 12.1659V12.0286L33.5438 12.0708C33.343 12.0885 33.2004 12.1307 33.1158 12.1976C33.0313 12.261 32.989 12.3456 32.989 12.4513C32.989 12.5675 33.0278 12.6556 33.1053 12.7154C33.1828 12.7753 33.2919 12.8053 33.4328 12.8053ZM35.3139 10.6126H36.9624V11.1515H35.3139V10.6126ZM36.4604 13.2227H35.8158V9.7989H36.4604V13.2227ZM38.7744 13.2913C38.5173 13.2913 38.2883 13.2332 38.0875 13.117C37.8903 12.9972 37.7353 12.8352 37.6226 12.6309C37.5099 12.4231 37.4535 12.1853 37.4535 11.9176C37.4535 11.6464 37.5081 11.4069 37.6173 11.199C37.7265 10.9912 37.8797 10.8292 38.077 10.713C38.2742 10.5932 38.4997 10.5333 38.7533 10.5333C39.0175 10.5333 39.2446 10.5897 39.4349 10.7024C39.6251 10.8116 39.7712 10.9648 39.8734 11.1621C39.9791 11.3593 40.0319 11.5953 40.0319 11.8701V12.0656L37.7917 12.0708L37.8022 11.6587H39.3926C39.3926 11.4791 39.3345 11.3347 39.2182 11.2255C39.1055 11.1163 38.9523 11.0617 38.7586 11.0617C38.6071 11.0617 38.4785 11.0934 38.3729 11.1568C38.2707 11.2202 38.1932 11.3153 38.1404 11.4421C38.0875 11.5689 38.0611 11.7239 38.0611 11.907C38.0611 12.1888 38.121 12.4019 38.2408 12.5464C38.3641 12.6908 38.5455 12.763 38.785 12.763C38.9611 12.763 39.1055 12.7295 39.2182 12.6626C39.3345 12.5957 39.4102 12.5006 39.4454 12.3773H40.0425C39.9861 12.6626 39.8452 12.8863 39.6198 13.0483C39.3979 13.2103 39.1161 13.2913 38.7744 13.2913ZM42.4499 10.602V11.199H42.2121C41.9761 11.199 41.7912 11.2625 41.6573 11.3893C41.5235 11.5125 41.4566 11.701 41.4566 11.9546V13.2227H40.812V10.6179H41.4196L41.4724 11.1568H41.409C41.4442 10.9842 41.527 10.8433 41.6573 10.7341C41.7877 10.6249 41.9567 10.5703 42.1646 10.5703C42.2104 10.5703 42.2561 10.5721 42.3019 10.5756C42.3477 10.5791 42.397 10.5879 42.4499 10.602ZM28.7467 15.602V16.199H28.5089C28.2729 16.199 28.088 16.2625 27.9541 16.3893C27.8203 16.5125 27.7533 16.701 27.7533 16.9546V18.2227H27.1087V15.6179H27.7164L27.7692 16.1568H27.7058C27.741 15.9842 27.8238 15.8433 27.9541 15.7341C28.0844 15.6249 28.2535 15.5703 28.4613 15.5703C28.5071 15.5703 28.5529 15.5721 28.5987 15.5756C28.6445 15.5791 28.6938 15.5879 28.7467 15.602ZM30.5271 18.2913C30.27 18.2913 30.041 18.2332 29.8402 18.117C29.643 17.9972 29.488 17.8352 29.3753 17.6309C29.2626 17.4231 29.2062 17.1853 29.2062 16.9176C29.2062 16.6464 29.2608 16.4069 29.37 16.199C29.4792 15.9912 29.6324 15.8292 29.8297 15.713C30.0269 15.5932 30.2523 15.5333 30.506 15.5333C30.7701 15.5333 30.9973 15.5897 31.1875 15.7024C31.3777 15.8116 31.5239 15.9648 31.6261 16.1621C31.7317 16.3593 31.7846 16.5953 31.7846 16.8701V17.0656L29.5443 17.0708L29.5549 16.6587H31.1453C31.1453 16.4791 31.0871 16.3347 30.9709 16.2255C30.8582 16.1163 30.705 16.0617 30.5112 16.0617C30.3598 16.0617 30.2312 16.0934 30.1255 16.1568C30.0234 16.2202 29.9459 16.3153 29.8931 16.4421C29.8402 16.5689 29.8138 16.7239 29.8138 16.907C29.8138 17.1888 29.8737 17.4019 29.9934 17.5464C30.1167 17.6908 30.2981 17.763 30.5377 17.763C30.7138 17.763 30.8582 17.7295 30.9709 17.6626C31.0871 17.5957 31.1629 17.5006 31.1981 17.3773H31.7951C31.7388 17.6626 31.5979 17.8863 31.3725 18.0483C31.1505 18.2103 30.8688 18.2913 30.5271 18.2913ZM32.3639 17.4301H32.9768C32.9803 17.5428 33.0226 17.6327 33.1036 17.6996C33.1846 17.7665 33.2973 17.8 33.4417 17.8C33.5967 17.8 33.7129 17.7718 33.7904 17.7154C33.8714 17.6591 33.912 17.5833 33.912 17.4882C33.912 17.4248 33.8908 17.3685 33.8486 17.3192C33.8063 17.2699 33.727 17.2329 33.6108 17.2082L33.1406 17.0973C32.9046 17.0444 32.7284 16.9599 32.6122 16.8436C32.4995 16.7239 32.4431 16.5601 32.4431 16.3523C32.4431 16.1832 32.4872 16.037 32.5752 15.9137C32.6668 15.7905 32.7901 15.6971 32.9451 15.6337C33.1 15.5668 33.2779 15.5333 33.4787 15.5333C33.6724 15.5333 33.8433 15.5685 33.9912 15.639C34.1392 15.7094 34.2536 15.8081 34.3346 15.9349C34.4192 16.0617 34.4632 16.2096 34.4667 16.3787H33.8538C33.8538 16.266 33.8186 16.1779 33.7482 16.1145C33.6777 16.0476 33.5791 16.0141 33.4523 16.0141C33.3255 16.0141 33.2269 16.0423 33.1564 16.0987C33.086 16.155 33.0507 16.2308 33.0507 16.3259C33.0507 16.4703 33.1635 16.5689 33.3889 16.6217L33.8591 16.7327C34.0775 16.782 34.2413 16.8613 34.3505 16.9705C34.4632 17.0796 34.5196 17.2346 34.5196 17.4354C34.5196 17.6115 34.4738 17.7647 34.3822 17.8951C34.2906 18.0219 34.162 18.1205 33.9965 18.191C33.8309 18.2579 33.6407 18.2913 33.4259 18.2913C33.1018 18.2913 32.8429 18.2121 32.6492 18.0536C32.459 17.8951 32.3639 17.6873 32.3639 17.4301ZM35.2745 18.2227V15.6126H35.9191V18.2227H35.2745ZM35.5916 15.0895C35.4824 15.0895 35.389 15.0525 35.3115 14.9785C35.2376 14.9011 35.2006 14.8077 35.2006 14.6985C35.2006 14.5893 35.2376 14.4977 35.3115 14.4238C35.389 14.3498 35.4824 14.3128 35.5916 14.3128C35.7007 14.3128 35.7923 14.3498 35.8663 14.4238C35.9438 14.4977 35.9825 14.5893 35.9825 14.6985C35.9825 14.8077 35.9438 14.9011 35.8663 14.9785C35.7923 15.0525 35.7007 15.0895 35.5916 15.0895ZM36.6485 17.4301H37.2614C37.2649 17.5428 37.3072 17.6327 37.3882 17.6996C37.4692 17.7665 37.5819 17.8 37.7264 17.8C37.8813 17.8 37.9976 17.7718 38.0751 17.7154C38.1561 17.6591 38.1966 17.5833 38.1966 17.4882C38.1966 17.4248 38.1755 17.3685 38.1332 17.3192C38.0909 17.2699 38.0117 17.2329 37.8954 17.2082L37.4252 17.0973C37.1892 17.0444 37.0131 16.9599 36.8968 16.8436C36.7841 16.7239 36.7278 16.5601 36.7278 16.3523C36.7278 16.1832 36.7718 16.037 36.8599 15.9137C36.9514 15.7905 37.0747 15.6971 37.2297 15.6337C37.3847 15.5668 37.5626 15.5333 37.7633 15.5333C37.9571 15.5333 38.1279 15.5685 38.2759 15.639C38.4238 15.7094 38.5383 15.8081 38.6193 15.9349C38.7038 16.0617 38.7479 16.2096 38.7514 16.3787H38.1385C38.1385 16.266 38.1033 16.1779 38.0328 16.1145C37.9624 16.0476 37.8637 16.0141 37.7369 16.0141C37.6101 16.0141 37.5115 16.0423 37.4411 16.0987C37.3706 16.155 37.3354 16.2308 37.3354 16.3259C37.3354 16.4703 37.4481 16.5689 37.6735 16.6217L38.1438 16.7327C38.3622 16.782 38.5259 16.8613 38.6351 16.9705C38.7479 17.0796 38.8042 17.2346 38.8042 17.4354C38.8042 17.6115 38.7584 17.7647 38.6668 17.8951C38.5753 18.0219 38.4467 18.1205 38.2811 18.191C38.1156 18.2579 37.9254 18.2913 37.7105 18.2913C37.3865 18.2913 37.1276 18.2121 36.9338 18.0536C36.7436 17.8951 36.6485 17.6873 36.6485 17.4301ZM39.3003 15.6126H40.9488V16.1515H39.3003V15.6126ZM40.4468 18.2227H39.8022V14.7989H40.4468V18.2227ZM42.3802 18.2913C42.1054 18.2913 41.887 18.2174 41.725 18.0694C41.5665 17.918 41.4872 17.7207 41.4872 17.4777C41.4872 17.2382 41.57 17.0479 41.7356 16.907C41.9046 16.7626 42.1442 16.6781 42.4541 16.6534L43.2361 16.59V16.5319C43.2361 16.4122 43.2132 16.317 43.1674 16.2466C43.1251 16.1726 43.0635 16.1198 42.9825 16.0881C42.9015 16.0529 42.8064 16.0353 42.6972 16.0353C42.507 16.0353 42.3608 16.074 42.2586 16.1515C42.1565 16.2255 42.1054 16.3311 42.1054 16.4685H41.5559C41.5559 16.2783 41.6035 16.1145 41.6986 15.9771C41.7972 15.8362 41.9346 15.7271 42.1107 15.6496C42.2903 15.5721 42.4964 15.5333 42.7289 15.5333C42.9649 15.5333 43.1674 15.5756 43.3365 15.6601C43.5056 15.7411 43.6359 15.8644 43.7275 16.03C43.819 16.192 43.8648 16.3945 43.8648 16.6376V18.2227H43.2995L43.2519 17.837C43.1956 17.9708 43.0864 18.08 42.9244 18.1645C42.7659 18.2491 42.5845 18.2913 42.3802 18.2913ZM42.5862 17.8053C42.787 17.8053 42.9455 17.7489 43.0617 17.6362C43.1815 17.5235 43.2414 17.3667 43.2414 17.1659V17.0286L42.6972 17.0708C42.4964 17.0885 42.3537 17.1307 42.2692 17.1976C42.1847 17.261 42.1424 17.3456 42.1424 17.4513C42.1424 17.5675 42.1811 17.6556 42.2586 17.7154C42.3361 17.7753 42.4453 17.8053 42.5862 17.8053ZM45.4069 18.2227H44.7623V15.6126H45.3593L45.4121 15.9507C45.4932 15.8204 45.6076 15.7182 45.7556 15.6443C45.907 15.5703 46.0708 15.5333 46.2469 15.5333C46.5745 15.5333 46.8211 15.6302 46.9866 15.8239C47.1557 16.0176 47.2403 16.2818 47.2403 16.6165V18.2227H46.5957V16.7697C46.5957 16.5513 46.5463 16.3893 46.4477 16.2836C46.3491 16.1744 46.2152 16.1198 46.0462 16.1198C45.8454 16.1198 45.6886 16.1832 45.5759 16.31C45.4632 16.4368 45.4069 16.6059 45.4069 16.8172V18.2227ZM47.8789 15.6126H49.5273V16.1515H47.8789V15.6126ZM49.0254 18.2227H48.3808V14.7989H49.0254V18.2227Z" fill="white"/>
</g>
<path d="M83.9346 6.0625H118.998C122.182 6.0625 124.762 8.64308 124.762 11.8264V15.669C124.762 18.8523 122.182 21.4329 118.998 21.4329H83.9346V6.0625Z" fill="url(#paint3_linear_514_1888)"/>
<path opacity="0.9" d="M96.8 12.9824H95.4104V9.12013H96.763C97.1434 9.12013 97.478 9.20291 97.7669 9.36846C98.0557 9.53049 98.2811 9.75768 98.4432 10.05C98.6087 10.3389 98.6915 10.6753 98.6915 11.0592C98.6915 11.4361 98.6105 11.7707 98.4484 12.0631C98.2899 12.3519 98.068 12.5773 97.7827 12.7394C97.5009 12.9014 97.1733 12.9824 96.8 12.9824ZM96.0867 9.43186V12.676L95.7644 12.359H96.7366C96.9937 12.359 97.2156 12.3061 97.4023 12.2005C97.589 12.0948 97.7316 11.9451 97.8303 11.7514C97.9289 11.5576 97.9782 11.3269 97.9782 11.0592C97.9782 10.7845 97.9271 10.5502 97.825 10.3565C97.7228 10.1592 97.5767 10.0078 97.3864 9.9021C97.1962 9.79643 96.9673 9.74359 96.6996 9.74359H95.7644L96.0867 9.43186ZM101.261 10.3723H101.905V12.9824H101.308L101.261 12.6337C101.183 12.757 101.067 12.8574 100.912 12.9349C100.757 13.0124 100.591 13.0511 100.415 13.0511C100.116 13.0511 99.8815 12.956 99.7125 12.7658C99.5434 12.5756 99.4588 12.322 99.4588 12.005V10.3723H100.103V11.7778C100.103 12.0243 100.151 12.2022 100.246 12.3114C100.341 12.4206 100.479 12.4752 100.658 12.4752C100.863 12.4752 101.014 12.4153 101.113 12.2956C101.211 12.1723 101.261 11.9873 101.261 11.7408V10.3723ZM104.473 10.3618V10.9588H104.235C103.999 10.9588 103.814 11.0222 103.68 11.149C103.547 11.2723 103.48 11.4608 103.48 11.7144V12.9824H102.835V10.3776H103.443L103.496 10.9165H103.432C103.467 10.7439 103.55 10.6031 103.68 10.4939C103.811 10.3847 103.98 10.3301 104.188 10.3301C104.233 10.3301 104.279 10.3318 104.325 10.3354C104.371 10.3389 104.42 10.3477 104.473 10.3618ZM105.847 13.0511C105.572 13.0511 105.354 12.9771 105.192 12.8292C105.033 12.6777 104.954 12.4805 104.954 12.2374C104.954 11.9979 105.037 11.8077 105.202 11.6668C105.371 11.5224 105.611 11.4379 105.921 11.4132L106.703 11.3498V11.2917C106.703 11.1719 106.68 11.0768 106.634 11.0064C106.592 10.9324 106.53 10.8796 106.449 10.8479C106.368 10.8126 106.273 10.795 106.164 10.795C105.974 10.795 105.828 10.8338 105.725 10.9113C105.623 10.9852 105.572 11.0909 105.572 11.2283H105.023C105.023 11.0381 105.07 10.8743 105.165 10.7369C105.264 10.596 105.401 10.4868 105.578 10.4093C105.757 10.3318 105.963 10.2931 106.196 10.2931C106.432 10.2931 106.634 10.3354 106.803 10.4199C106.972 10.5009 107.103 10.6242 107.194 10.7897C107.286 10.9518 107.332 11.1543 107.332 11.3974V12.9824H106.766L106.719 12.5967C106.662 12.7306 106.553 12.8398 106.391 12.9243C106.233 13.0088 106.051 13.0511 105.847 13.0511ZM106.053 12.565C106.254 12.565 106.412 12.5087 106.529 12.3959C106.648 12.2832 106.708 12.1265 106.708 11.9257V11.7883L106.164 11.8306C105.963 11.8482 105.821 11.8905 105.736 11.9574C105.651 12.0208 105.609 12.1053 105.609 12.211C105.609 12.3273 105.648 12.4153 105.725 12.4752C105.803 12.5351 105.912 12.565 106.053 12.565ZM108.826 12.9824H108.229V9.05145H108.874V10.7528C108.958 10.6048 109.081 10.4921 109.244 10.4146C109.406 10.3336 109.587 10.2931 109.788 10.2931C110.038 10.2931 110.251 10.353 110.427 10.4727C110.607 10.589 110.744 10.7528 110.839 10.9641C110.938 11.1754 110.987 11.4202 110.987 11.6985C110.987 11.9627 110.936 12.1969 110.834 12.4012C110.732 12.6055 110.587 12.7658 110.401 12.882C110.214 12.9948 109.996 13.0511 109.745 13.0511C109.552 13.0511 109.376 13.0088 109.217 12.9243C109.062 12.8398 108.946 12.7235 108.868 12.5756L108.826 12.9824ZM108.879 11.6668C108.879 11.8218 108.909 11.9609 108.969 12.0842C109.029 12.204 109.113 12.2973 109.222 12.3642C109.335 12.4276 109.465 12.4593 109.613 12.4593C109.765 12.4593 109.895 12.4259 110.004 12.359C110.114 12.292 110.196 12.1987 110.253 12.0789C110.309 11.9592 110.337 11.8218 110.337 11.6668C110.337 11.5118 110.309 11.3745 110.253 11.2547C110.196 11.1349 110.114 11.0416 110.004 10.9747C109.895 10.9042 109.765 10.869 109.613 10.869C109.465 10.869 109.335 10.9042 109.222 10.9747C109.113 11.0416 109.029 11.1349 108.969 11.2547C108.909 11.3709 108.879 11.5083 108.879 11.6668ZM112.414 12.9824H111.775V9.05145H112.414V12.9824ZM114.522 13.0511C114.265 13.0511 114.036 12.993 113.836 12.8768C113.638 12.757 113.483 12.595 113.371 12.3907C113.258 12.1828 113.202 11.9451 113.202 11.6774C113.202 11.4062 113.256 11.1666 113.365 10.9588C113.475 10.751 113.628 10.589 113.825 10.4727C114.022 10.353 114.248 10.2931 114.501 10.2931C114.765 10.2931 114.993 10.3494 115.183 10.4622C115.373 10.5714 115.519 10.7246 115.621 10.9218C115.727 11.1191 115.78 11.3551 115.78 11.6298V11.8253L113.54 11.8306L113.55 11.4185H115.141C115.141 11.2388 115.082 11.0944 114.966 10.9852C114.854 10.876 114.7 10.8214 114.507 10.8214C114.355 10.8214 114.227 10.8531 114.121 10.9165C114.019 10.9799 113.941 11.0751 113.888 11.2019C113.836 11.3287 113.809 11.4836 113.809 11.6668C113.809 11.9486 113.869 12.1617 113.989 12.3061C114.112 12.4505 114.293 12.5228 114.533 12.5228C114.709 12.5228 114.854 12.4893 114.966 12.4224C115.082 12.3554 115.158 12.2603 115.193 12.1371H115.79C115.734 12.4224 115.593 12.646 115.368 12.8081C115.146 12.9701 114.864 13.0511 114.522 13.0511ZM96.3879 18.0511C96.1342 18.0511 95.9159 17.9948 95.7327 17.882C95.553 17.7658 95.4122 17.6055 95.31 17.4012C95.2114 17.1969 95.1621 16.9592 95.1621 16.6879C95.1621 16.4167 95.2114 16.1772 95.31 15.9694C95.4122 15.758 95.5583 15.5925 95.7485 15.4727C95.9387 15.353 96.1642 15.2931 96.4248 15.2931C96.608 15.2931 96.7753 15.3301 96.9268 15.404C97.0782 15.4745 97.1945 15.5749 97.2755 15.7052V14.0514H97.9148V17.9824H97.323L97.2808 17.5756C97.2033 17.7235 97.0835 17.8398 96.9215 17.9243C96.763 18.0088 96.5851 18.0511 96.3879 18.0511ZM96.5305 17.4593C96.682 17.4593 96.8123 17.4276 96.9215 17.3642C97.0307 17.2973 97.1152 17.204 97.1751 17.0842C97.2385 16.9609 97.2702 16.8218 97.2702 16.6668C97.2702 16.5083 97.2385 16.3709 97.1751 16.2547C97.1152 16.1349 97.0307 16.0416 96.9215 15.9747C96.8123 15.9042 96.682 15.869 96.5305 15.869C96.3826 15.869 96.254 15.9042 96.1448 15.9747C96.0356 16.0416 95.9511 16.1349 95.8912 16.2547C95.8348 16.3745 95.8067 16.5118 95.8067 16.6668C95.8067 16.8218 95.8348 16.9592 95.8912 17.0789C95.9511 17.1987 96.0356 17.292 96.1448 17.359C96.254 17.4259 96.3826 17.4593 96.5305 17.4593ZM100.018 18.0511C99.7613 18.0511 99.5323 17.993 99.3315 17.8768C99.1343 17.757 98.9793 17.595 98.8666 17.3907C98.7539 17.1828 98.6975 16.9451 98.6975 16.6774C98.6975 16.4062 98.7521 16.1666 98.8613 15.9588C98.9705 15.751 99.1237 15.589 99.321 15.4727C99.5182 15.353 99.7437 15.2931 99.9973 15.2931C100.261 15.2931 100.489 15.3494 100.679 15.4622C100.869 15.5714 101.015 15.7246 101.117 15.9218C101.223 16.1191 101.276 16.3551 101.276 16.6298V16.8253L99.0357 16.8306L99.0462 16.4185H100.637C100.637 16.2388 100.578 16.0944 100.462 15.9852C100.35 15.876 100.196 15.8214 100.003 15.8214C99.8511 15.8214 99.7225 15.8531 99.6169 15.9165C99.5147 15.9799 99.4372 16.0751 99.3844 16.2019C99.3315 16.3287 99.3051 16.4836 99.3051 16.6668C99.3051 16.9486 99.365 17.1617 99.4848 17.3061C99.608 17.4505 99.7895 17.5228 100.029 17.5228C100.205 17.5228 100.35 17.4893 100.462 17.4224C100.578 17.3554 100.654 17.2603 100.689 17.1371H101.286C101.23 17.4224 101.089 17.646 100.864 17.8081C100.642 17.9701 100.36 18.0511 100.018 18.0511ZM101.855 17.1899H102.468C102.472 17.3026 102.514 17.3924 102.595 17.4593C102.676 17.5263 102.789 17.5597 102.933 17.5597C103.088 17.5597 103.204 17.5316 103.282 17.4752C103.363 17.4188 103.403 17.3431 103.403 17.248C103.403 17.1846 103.382 17.1282 103.34 17.0789C103.298 17.0296 103.218 16.9926 103.102 16.968L102.632 16.857C102.396 16.8042 102.22 16.7196 102.104 16.6034C101.991 16.4836 101.934 16.3199 101.934 16.112C101.934 15.943 101.978 15.7968 102.067 15.6735C102.158 15.5502 102.281 15.4569 102.436 15.3935C102.591 15.3265 102.769 15.2931 102.97 15.2931C103.164 15.2931 103.335 15.3283 103.483 15.3988C103.63 15.4692 103.745 15.5678 103.826 15.6946C103.91 15.8214 103.955 15.9694 103.958 16.1385H103.345C103.345 16.0257 103.31 15.9377 103.239 15.8743C103.169 15.8074 103.07 15.7739 102.944 15.7739C102.817 15.7739 102.718 15.8021 102.648 15.8584C102.577 15.9148 102.542 15.9905 102.542 16.0856C102.542 16.23 102.655 16.3287 102.88 16.3815L103.35 16.4925C103.569 16.5418 103.733 16.621 103.842 16.7302C103.955 16.8394 104.011 16.9944 104.011 17.1952C104.011 17.3713 103.965 17.5245 103.874 17.6548C103.782 17.7816 103.653 17.8803 103.488 17.9507C103.322 18.0176 103.132 18.0511 102.917 18.0511C102.593 18.0511 102.334 17.9719 102.141 17.8133C101.95 17.6548 101.855 17.447 101.855 17.1899ZM104.766 17.9824V15.3723H105.41V17.9824H104.766ZM105.083 14.8493C104.974 14.8493 104.88 14.8123 104.803 14.7383C104.729 14.6608 104.692 14.5675 104.692 14.4583C104.692 14.3491 104.729 14.2575 104.803 14.1835C104.88 14.1096 104.974 14.0726 105.083 14.0726C105.192 14.0726 105.284 14.1096 105.358 14.1835C105.435 14.2575 105.474 14.3491 105.474 14.4583C105.474 14.5675 105.435 14.6608 105.358 14.7383C105.284 14.8123 105.192 14.8493 105.083 14.8493ZM106.193 16.6193C106.193 16.3656 106.244 16.1402 106.346 15.943C106.452 15.7422 106.598 15.5837 106.784 15.4674C106.971 15.3512 107.188 15.2931 107.434 15.2931C107.656 15.2931 107.846 15.3424 108.005 15.441C108.163 15.5361 108.274 15.67 108.338 15.8426L108.269 15.9007L108.322 15.3723H108.919V17.8503C108.919 18.1392 108.863 18.3893 108.75 18.6006C108.641 18.8155 108.484 18.9793 108.28 19.092C108.079 19.2082 107.836 19.2663 107.551 19.2663C107.177 19.2663 106.871 19.1659 106.631 18.9652C106.392 18.7644 106.251 18.4896 106.209 18.1409H106.853C106.874 18.31 106.945 18.4421 107.064 18.5372C107.188 18.6323 107.35 18.6799 107.551 18.6799C107.772 18.6799 107.949 18.6147 108.079 18.4844C108.213 18.3576 108.28 18.185 108.28 17.9666V17.3167L108.354 17.3854C108.29 17.5509 108.174 17.683 108.005 17.7816C107.836 17.8803 107.64 17.9296 107.418 17.9296C107.172 17.9296 106.957 17.8732 106.774 17.7605C106.591 17.6478 106.448 17.4928 106.346 17.2956C106.244 17.0983 106.193 16.8729 106.193 16.6193ZM106.843 16.6034C106.843 16.7514 106.871 16.8834 106.927 16.9997C106.987 17.1124 107.07 17.2022 107.175 17.2691C107.281 17.3361 107.404 17.3695 107.545 17.3695C107.693 17.3695 107.82 17.3378 107.926 17.2744C108.035 17.2075 108.118 17.1177 108.174 17.005C108.234 16.8887 108.264 16.7549 108.264 16.6034C108.264 16.4519 108.236 16.3216 108.179 16.2124C108.123 16.0997 108.04 16.0117 107.931 15.9482C107.825 15.8848 107.697 15.8531 107.545 15.8531C107.401 15.8531 107.276 15.8866 107.17 15.9535C107.064 16.0169 106.983 16.105 106.927 16.2177C106.871 16.3304 106.843 16.459 106.843 16.6034ZM110.495 17.9824H109.85V15.3723H110.447L110.5 15.7105C110.581 15.5802 110.696 15.478 110.844 15.404C110.995 15.3301 111.159 15.2931 111.335 15.2931C111.663 15.2931 111.909 15.39 112.075 15.5837C112.244 15.7774 112.328 16.0416 112.328 16.3762V17.9824H111.684V16.5294C111.684 16.3111 111.634 16.149 111.536 16.0434C111.437 15.9342 111.303 15.8796 111.134 15.8796C110.933 15.8796 110.777 15.943 110.664 16.0698C110.551 16.1966 110.495 16.3656 110.495 16.577V17.9824Z" fill="white"/>
<g clip-path="url(#clip1_514_1888)">
<path d="M89.7769 12.0893C89.5102 10.6158 88.9226 9.20555 88.0684 7.9716L88.9588 7.08569L86.2739 4.40083L85.388 5.29127C84.1541 4.43699 82.7393 3.85392 81.2703 3.58272V2.32617H77.4736V3.58272C76.0046 3.8494 74.5898 4.43699 73.3559 5.29127L72.47 4.40083L69.7851 7.08569L70.6755 7.9716C69.8213 9.20555 69.2382 10.6203 68.967 12.0893H67.7104V15.8861H68.967C69.2337 17.355 69.8213 18.7698 70.6755 20.0037L69.7851 20.8897L72.47 23.5745L73.3559 22.6841C74.5898 23.5383 76.0046 24.1214 77.4736 24.3926V25.6492H81.2703V24.3926C82.7393 24.1259 84.1541 23.5383 85.388 22.6841L86.2739 23.5745L88.9588 20.8897L88.0684 20.0037C88.9226 18.7698 89.5057 17.3596 89.7769 15.8861H91.0334V12.0893H89.7769Z" fill="url(#paint4_radial_514_1888)" stroke="#FFFEFE" stroke-opacity="0.8" stroke-width="0.532534" stroke-linejoin="round"/>
<path d="M79.1053 11.0586C78.9278 13.1887 78.6793 17.5555 79.1053 17.9815" stroke="#FFFCE7" stroke-width="0.532534"/>
<path d="M80.514 15.2995H79.6642V14.4498C79.6642 12.1526 81.5344 10.2824 83.8316 10.2824H84.6814V11.1321C84.6814 13.4293 82.8112 15.2995 80.514 15.2995Z" fill="#FFFCE7" stroke="#FFFCE7" stroke-width="0.0451996"/>
<path d="M74.6017 11.1316V11.005H74.7283C77.0255 11.005 78.8957 12.8752 78.8957 15.1724V15.299H78.7691C76.4719 15.299 74.6017 13.4288 74.6017 11.1316Z" fill="#FFFCE7" stroke="#FFFCE7" stroke-width="0.0451996"/>
</g>
<defs>
<linearGradient id="paint0_linear_514_1888" x1="38.0317" y1="6.21854" x2="37.9305" y2="24.5479" gradientUnits="userSpaceOnUse">
<stop stop-color="#116A0E"/>
<stop offset="1" stop-color="#488A46"/>
</linearGradient>
<radialGradient id="paint1_radial_514_1888" cx="0" cy="0" r="1" gradientUnits="userSpaceOnUse" gradientTransform="translate(12.1261 13.7466) scale(11.9242 10.3974)">
<stop stop-color="#70C86D"/>
<stop offset="1" stop-color="#116A0E"/>
</radialGradient>
<linearGradient id="paint2_linear_514_1888" x1="8.78468" y1="12.8172" x2="15.5743" y2="12.8172" gradientUnits="userSpaceOnUse">
<stop stop-color="#0098FF"/>
<stop offset="0.1579" stop-color="#0095FB"/>
<stop offset="0.3246" stop-color="#008DEE"/>
<stop offset="0.4953" stop-color="#007FD9"/>
<stop offset="0.6688" stop-color="#006BBB"/>
<stop offset="0.8426" stop-color="#005296"/>
<stop offset="1" stop-color="#00376D"/>
</linearGradient>
<linearGradient id="paint3_linear_514_1888" x1="104.316" y1="5.98025" x2="104.215" y2="24.3096" gradientUnits="userSpaceOnUse">
<stop stop-color="#116A0E"/>
<stop offset="1" stop-color="#488A46"/>
</linearGradient>
<radialGradient id="paint4_radial_514_1888" cx="0" cy="0" r="1" gradientUnits="userSpaceOnUse" gradientTransform="translate(79.3719 13.9877) rotate(90) scale(11.6615)">
<stop stop-color="#469F43"/>
<stop offset="1" stop-color="#2D862A"/>
</radialGradient>
<clipPath id="clip0_514_1888">
<rect width="58.5996" height="26.8982" fill="white" transform="translate(0.838379 0.539062)"/>
</clipPath>
<clipPath id="clip1_514_1888">
<rect width="24.4965" height="24.4965" fill="white" transform="translate(67.123 1.74023)"/>
</clipPath>
</defs>
</svg>
