<svg width="21" height="30" viewBox="0 0 21 30" fill="none" xmlns="http://www.w3.org/2000/svg">
<path d="M10.8765 7.01172H12.5196V8.96925H10.8765V7.01172Z" fill="#08FF00"/>
<path d="M14.1631 7.01172H15.8062V8.96925H14.1631V7.01172Z" fill="#08FF00"/>
<path d="M20.7357 3.09816V8.97077H17.4494V7.01323C17.4481 6.49454 17.2746 5.99753 16.9667 5.63076C16.6589 5.26398 16.2417 5.05724 15.8063 5.0557H14.1632C13.8737 5.05806 13.59 5.15268 13.3416 5.32975C13.0923 5.15517 12.8092 5.06073 12.52 5.0557H10.8769C10.4411 5.0557 10.0232 5.26193 9.71501 5.62904C9.40686 5.99615 9.23374 6.49406 9.23374 7.01323V8.97077H1.01807V3.09816C1.01937 2.57947 1.1929 2.08246 1.50077 1.71569C1.80863 1.34891 2.22582 1.14217 2.6612 1.14062H19.0926C19.5279 1.14217 19.9451 1.34891 20.253 1.71569C20.5609 2.08246 20.7344 2.57947 20.7357 3.09816Z" fill="#51AC4E"/>
<path d="M5.94727 16.8223H7.5904V18.7798H5.94727V16.8223Z" fill="#08FF00"/>
<path d="M12.5195 16.8223H14.1627V18.7798H12.5195V16.8223Z" fill="#08FF00"/>
<path d="M20.7357 10.9453V18.7755H15.8063V16.8179C15.805 16.2992 15.6315 15.8022 15.3236 15.4354C15.0157 15.0687 14.5985 14.8619 14.1632 14.8604H12.52C12.0846 14.8619 11.6674 15.0687 11.3596 15.4354C11.0517 15.8022 10.8782 16.2992 10.8769 16.8179V18.7755H9.23374V16.8179C9.23244 16.2992 9.05891 15.8022 8.75104 15.4354C8.44318 15.0687 8.026 14.8619 7.59061 14.8604H5.94747C5.51209 14.8619 5.0949 15.0687 4.78704 15.4354C4.47917 15.8022 4.30564 16.2992 4.30434 16.8179V18.7755H1.01807V10.9453H20.7357Z" fill="#51AC4E"/>
<path d="M5.91406 26.627H7.5572V28.5845H5.91406V26.627Z" fill="#08FF00"/>
<path d="M14.1304 26.627H15.7735V28.5845H14.1304V26.627Z" fill="#08FF00"/>
<path d="M20.7025 20.7539V26.6265C20.7012 27.1452 20.5277 27.6422 20.2198 28.009C19.9119 28.3758 19.4947 28.5825 19.0594 28.584H17.4162V26.6265C17.4149 26.1078 17.2414 25.6108 16.9335 25.244C16.6257 24.8773 16.2085 24.6705 15.7731 24.669H14.1299C13.6946 24.6705 13.2774 24.8773 12.9695 25.244C12.6616 25.6108 12.4881 26.1078 12.4868 26.6265V28.584H9.20054V26.6265C9.19924 26.1078 9.02571 25.6108 8.71784 25.244C8.40998 24.8773 7.99279 24.6705 7.55741 24.669H5.91427C5.47888 24.6705 5.0617 24.8773 4.75383 25.244C4.44597 25.6108 4.27243 26.1078 4.27113 26.6265V28.584H2.628C2.19261 28.5825 1.77543 28.3758 1.46756 28.009C1.1597 27.6422 0.986164 27.1452 0.984863 26.6265V20.7539H20.7025Z" fill="#51AC4E"/>
</svg>
