<svg width="99" height="39" viewBox="0 0 99 39" fill="none" xmlns="http://www.w3.org/2000/svg">
<rect x="0.248047" width="98.7149" height="38.7241" rx="4" fill="white"/>
<g clip-path="url(#clip0_373_2607)">
<path d="M89.383 14.2147C88.656 12.136 86.6746 10.6433 84.3474 10.6433H84.2987C82.7859 10.6433 81.4225 11.2729 80.452 12.2837C79.4798 11.2729 78.1163 10.6433 76.6051 10.6433H76.5565C75.2266 10.6433 74.011 11.1302 73.0774 11.9362V11.5265C73.0455 11.1184 72.7097 10.7978 72.2949 10.7978H68.7252C68.2887 10.7978 67.9361 11.1503 67.9361 11.5886V30.9736C67.9361 31.4118 68.2887 31.7645 68.7252 31.7645H72.2949C72.6929 31.7645 73.0203 31.4673 73.0724 31.0827L73.0707 17.1665C73.0703 17.12 73.0726 17.0734 73.0774 17.0271C73.1345 16.4059 73.5895 15.8954 74.3082 15.8316H74.9663C75.2669 15.8585 75.5204 15.9643 75.7202 16.1238C76.0309 16.3706 76.2038 16.7501 76.2038 17.1665L76.2172 31.0139C76.2172 31.4521 76.5715 31.8064 77.0064 31.8064H80.5761C80.9976 31.8064 81.3401 31.4706 81.3603 31.0525L81.3586 17.148C81.3569 16.6913 81.5685 16.2783 81.9396 16.0331C82.1226 15.9155 82.3426 15.8367 82.5961 15.8132H83.2543C84.0267 15.8803 84.4934 16.4663 84.4918 17.148L84.5052 30.977C84.5052 31.4152 84.8595 31.7678 85.2943 31.7678H88.8641C89.299 31.7678 89.6532 31.4152 89.6532 30.977V16.1036C89.6532 15.0895 89.5392 14.6579 89.383 14.2147ZM65.2166 10.8483H63.1749V7.53038C63.1748 7.13243 62.8524 6.81006 62.4545 6.81006C62.4075 6.81006 62.3621 6.81672 62.3185 6.82515C60.0551 7.44642 60.5084 10.5813 56.3762 10.8483H55.9749C55.9144 10.8483 55.8574 10.8566 55.802 10.8684C55.4493 10.9474 55.1841 11.2613 55.1841 11.6374V15.2072C55.1841 15.642 55.5383 15.9963 55.9749 15.9963H58.1292L58.1259 31.1333C58.1259 31.5648 58.4751 31.9141 58.9066 31.9141H62.436C62.8659 31.9141 63.2152 31.5648 63.2152 31.1333L63.2168 15.9963H65.2166C65.6515 15.9963 66.0057 15.642 66.0057 15.2072V11.6374C66.0057 11.2026 65.6515 10.8483 65.2166 10.8483Z" fill="#00BAF2"/>
<path d="M52.373 10.8485H48.8032C48.3684 10.8485 48.0157 11.2028 48.0157 11.6377V19.019C48.0073 19.4756 47.6379 19.8417 47.1795 19.8417H45.6852C45.2217 19.8417 44.8473 19.4689 44.8473 19.0055L44.8339 11.6377C44.8339 11.2028 44.4796 10.8486 44.0447 10.8486H40.475C40.0384 10.8486 39.6858 11.2028 39.6858 11.6377V19.7275C39.6858 22.8002 41.877 24.9915 44.9514 24.9915C44.9514 24.9915 47.2585 24.9915 47.329 25.0049C47.7454 25.0519 48.0695 25.4011 48.0695 25.831C48.0695 26.2558 47.7521 26.6034 47.3408 26.6554C47.3206 26.6588 47.3022 26.6638 47.2803 26.6672L42.06 26.6856C41.6235 26.6856 41.2709 27.0399 41.2709 27.4748V31.0429C41.2709 31.4794 41.6235 31.832 42.06 31.832H47.8965C50.9726 31.832 53.1621 29.6425 53.1621 26.5681V11.6377C53.1621 11.2028 52.8095 10.8485 52.373 10.8485ZM17.8204 17.3894V19.5924C17.8204 20.0541 17.446 20.4302 16.9842 20.4302L14.7191 20.4319V16.0176H16.9842C17.446 16.0176 17.8204 16.3903 17.8204 16.8538V17.3894ZM18.1344 10.8477H10.3317C9.9035 10.8477 9.55762 11.1953 9.55762 11.6217V15.1193C9.55762 15.126 9.55928 15.1327 9.55928 15.1394C9.55928 15.1562 9.55762 15.173 9.55762 15.1881V31.0185C9.55762 31.4484 9.87999 31.7993 10.2797 31.8094H13.9165C14.3514 31.8094 14.7056 31.4568 14.7056 31.0202L14.7191 25.5951H18.1343C20.9921 25.5951 22.9835 23.6121 22.9835 20.7425V15.707C22.9835 12.8374 20.9922 10.8477 18.1344 10.8477ZM32.6317 25.77V26.3275C32.6317 26.3728 32.6251 26.4165 32.6184 26.4585C32.61 26.4978 32.5988 26.5366 32.5848 26.5743C32.4739 26.8866 32.1616 27.1133 31.7905 27.1133H30.3046C29.8411 27.1133 29.4634 26.7607 29.4634 26.3275V25.6542C29.4634 25.6458 29.4617 25.6374 29.4617 25.629L29.4634 23.8374V23.2766L29.465 23.2716C29.4667 22.84 29.8411 22.4908 30.3046 22.4908H31.7905C32.2556 22.4908 32.6318 22.8417 32.6318 23.2766L32.6317 25.77ZM32.0643 10.8682H27.111C26.6728 10.8682 26.3185 11.2006 26.3185 11.6086V12.9972C26.3185 13.0056 26.3202 13.0157 26.3202 13.0241C26.3202 13.0342 26.3185 13.0442 26.3185 13.0543V14.9567C26.3185 15.3883 26.6946 15.7409 27.158 15.7409H31.8745C32.2473 15.7997 32.5428 16.0717 32.5848 16.4965V16.9565C32.5428 17.3612 32.2507 17.6567 31.8947 17.6903H29.5591C26.4528 17.6903 24.2398 19.7539 24.2398 22.652V26.8027C24.2398 29.684 26.1422 31.7341 29.2266 31.7341H35.6995C36.8614 31.7341 37.8034 30.8543 37.8034 29.7713V16.2261C37.8034 12.9418 36.1109 10.8682 32.0643 10.8682Z" fill="#1F336B"/>
</g>
<defs>
<clipPath id="clip0_373_2607">
<rect width="80.1757" height="25.1634" fill="white" transform="translate(9.51758 6.78027)"/>
</clipPath>
</defs>
</svg>
