<svg width="1242" height="1100" viewBox="0 0 1242 1100" fill="none" xmlns="http://www.w3.org/2000/svg">
<g opacity="0.1">
<rect x="52.1021" y="161.21" width="1131.73" height="772.02" stroke="white" stroke-dasharray="2 2"/>
<path d="M51.7432 547.436L1184.07 547.515M429.357 161.653L429.32 933.458M806.985 161.294L806.948 933.099" stroke="white" stroke-dasharray="2 2"/>
</g>
<circle cx="52" cy="160.981" r="19.3296" fill="url(#paint0_radial_146_2414)"/>
<g opacity="0.2">
<line x1="44" y1="161.292" x2="60" y2="161.292" stroke="white" stroke-opacity="0.6"/>
<line x1="51.9751" y1="152.981" x2="51.9751" y2="168.981" stroke="white" stroke-opacity="0.6"/>
</g>
<circle cx="429.333" cy="160.981" r="19.3296" fill="url(#paint1_radial_146_2414)"/>
<g opacity="0.2">
<line x1="421.333" y1="161.292" x2="437.333" y2="161.292" stroke="white" stroke-opacity="0.6"/>
<line x1="429.309" y1="152.981" x2="429.309" y2="168.981" stroke="white" stroke-opacity="0.6"/>
</g>
<circle cx="806.667" cy="160.981" r="19.3296" fill="url(#paint2_radial_146_2414)"/>
<g opacity="0.2">
<line x1="798.667" y1="161.292" x2="814.667" y2="161.292" stroke="white" stroke-opacity="0.6"/>
<line x1="806.642" y1="152.981" x2="806.642" y2="168.981" stroke="white" stroke-opacity="0.6"/>
</g>
<circle cx="1184" cy="160.981" r="19.3296" fill="url(#paint3_radial_146_2414)"/>
<g opacity="0.2">
<line x1="1176" y1="161.292" x2="1192" y2="161.292" stroke="white" stroke-opacity="0.6"/>
<line x1="1183.98" y1="152.981" x2="1183.98" y2="168.981" stroke="white" stroke-opacity="0.6"/>
</g>
<circle cx="52" cy="546.981" r="19.3296" fill="url(#paint4_radial_146_2414)"/>
<g opacity="0.2">
<line x1="44" y1="547.292" x2="60" y2="547.292" stroke="white" stroke-opacity="0.6"/>
<line x1="51.9751" y1="538.981" x2="51.9751" y2="554.981" stroke="white" stroke-opacity="0.6"/>
</g>
<circle cx="429.333" cy="546.981" r="19.3296" fill="url(#paint5_radial_146_2414)"/>
<g opacity="0.2">
<line x1="421.333" y1="547.292" x2="437.333" y2="547.292" stroke="white" stroke-opacity="0.6"/>
<line x1="429.309" y1="538.981" x2="429.309" y2="554.981" stroke="white" stroke-opacity="0.6"/>
</g>
<circle cx="806.667" cy="546.981" r="19.3296" fill="url(#paint6_radial_146_2414)"/>
<g opacity="0.2">
<line x1="798.667" y1="547.292" x2="814.667" y2="547.292" stroke="white" stroke-opacity="0.6"/>
<line x1="806.642" y1="538.981" x2="806.642" y2="554.981" stroke="white" stroke-opacity="0.6"/>
</g>
<circle cx="1184" cy="546.981" r="19.3296" fill="url(#paint7_radial_146_2414)"/>
<g opacity="0.2">
<line x1="1176" y1="547.292" x2="1192" y2="547.292" stroke="white" stroke-opacity="0.6"/>
<line x1="1183.98" y1="538.981" x2="1183.98" y2="554.981" stroke="white" stroke-opacity="0.6"/>
</g>
<circle cx="52" cy="932.981" r="19.3296" fill="url(#paint8_radial_146_2414)"/>
<g opacity="0.2">
<line x1="44" y1="933.292" x2="60" y2="933.292" stroke="white" stroke-opacity="0.6"/>
<line x1="51.9751" y1="924.981" x2="51.9751" y2="940.981" stroke="white" stroke-opacity="0.6"/>
</g>
<circle cx="429.333" cy="932.981" r="19.3296" fill="url(#paint9_radial_146_2414)"/>
<g opacity="0.2">
<line x1="421.333" y1="933.292" x2="437.333" y2="933.292" stroke="white" stroke-opacity="0.6"/>
<line x1="429.309" y1="924.981" x2="429.309" y2="940.981" stroke="white" stroke-opacity="0.6"/>
</g>
<circle cx="806.667" cy="932.981" r="19.3296" fill="url(#paint10_radial_146_2414)"/>
<g opacity="0.2">
<line x1="798.667" y1="933.292" x2="814.667" y2="933.292" stroke="white" stroke-opacity="0.6"/>
<line x1="806.642" y1="924.981" x2="806.642" y2="940.981" stroke="white" stroke-opacity="0.6"/>
</g>
<circle cx="1184" cy="932.981" r="19.3296" fill="url(#paint11_radial_146_2414)"/>
<g opacity="0.2">
<line x1="1176" y1="933.292" x2="1192" y2="933.292" stroke="white" stroke-opacity="0.6"/>
<line x1="1183.98" y1="924.981" x2="1183.98" y2="940.981" stroke="white" stroke-opacity="0.6"/>
</g>
<g opacity="0.06">
<line x1="51.5" y1="1098.98" x2="51.5" y2="-0.019043" stroke="white" stroke-dasharray="2 2"/>
<line x1="429.167" y1="1098.98" x2="429.167" y2="-0.019043" stroke="white" stroke-dasharray="2 2"/>
<line x1="806.833" y1="1098.98" x2="806.834" y2="-0.019043" stroke="white" stroke-dasharray="2 2"/>
<line x1="1184.5" y1="1098.98" x2="1184.5" y2="-0.019043" stroke="white" stroke-dasharray="2 2"/>
</g>
<rect x="0.495605" y="-24.7976" width="1226.94" height="119.061" fill="url(#paint12_linear_146_2414)"/>
<rect width="1225.94" height="119.061" transform="matrix(1 0 0 -1 15.5317 1119.01)" fill="url(#paint13_linear_146_2414)"/>
<defs>
<radialGradient id="paint0_radial_146_2414" cx="0" cy="0" r="1" gradientUnits="userSpaceOnUse" gradientTransform="translate(52 160.981) rotate(90) scale(19.3296)">
<stop offset="0.649111" stop-color="#171717"/>
<stop offset="1" stop-color="#171717" stop-opacity="0"/>
</radialGradient>
<radialGradient id="paint1_radial_146_2414" cx="0" cy="0" r="1" gradientUnits="userSpaceOnUse" gradientTransform="translate(429.333 160.981) rotate(90) scale(19.3296)">
<stop offset="0.649111" stop-color="#171717"/>
<stop offset="1" stop-color="#171717" stop-opacity="0"/>
</radialGradient>
<radialGradient id="paint2_radial_146_2414" cx="0" cy="0" r="1" gradientUnits="userSpaceOnUse" gradientTransform="translate(806.667 160.981) rotate(90) scale(19.3296)">
<stop offset="0.649111" stop-color="#171717"/>
<stop offset="1" stop-color="#171717" stop-opacity="0"/>
</radialGradient>
<radialGradient id="paint3_radial_146_2414" cx="0" cy="0" r="1" gradientUnits="userSpaceOnUse" gradientTransform="translate(1184 160.981) rotate(90) scale(19.3296)">
<stop offset="0.649111" stop-color="#171717"/>
<stop offset="1" stop-color="#171717" stop-opacity="0"/>
</radialGradient>
<radialGradient id="paint4_radial_146_2414" cx="0" cy="0" r="1" gradientUnits="userSpaceOnUse" gradientTransform="translate(52 546.981) rotate(90) scale(19.3296)">
<stop offset="0.649111" stop-color="#171717"/>
<stop offset="1" stop-color="#171717" stop-opacity="0"/>
</radialGradient>
<radialGradient id="paint5_radial_146_2414" cx="0" cy="0" r="1" gradientUnits="userSpaceOnUse" gradientTransform="translate(429.333 546.981) rotate(90) scale(19.3296)">
<stop offset="0.649111" stop-color="#171717"/>
<stop offset="1" stop-color="#171717" stop-opacity="0"/>
</radialGradient>
<radialGradient id="paint6_radial_146_2414" cx="0" cy="0" r="1" gradientUnits="userSpaceOnUse" gradientTransform="translate(806.667 546.981) rotate(90) scale(19.3296)">
<stop offset="0.649111" stop-color="#171717"/>
<stop offset="1" stop-color="#171717" stop-opacity="0"/>
</radialGradient>
<radialGradient id="paint7_radial_146_2414" cx="0" cy="0" r="1" gradientUnits="userSpaceOnUse" gradientTransform="translate(1184 546.981) rotate(90) scale(19.3296)">
<stop offset="0.649111" stop-color="#171717"/>
<stop offset="1" stop-color="#171717" stop-opacity="0"/>
</radialGradient>
<radialGradient id="paint8_radial_146_2414" cx="0" cy="0" r="1" gradientUnits="userSpaceOnUse" gradientTransform="translate(52 932.981) rotate(90) scale(19.3296)">
<stop offset="0.649111" stop-color="#171717"/>
<stop offset="1" stop-color="#171717" stop-opacity="0"/>
</radialGradient>
<radialGradient id="paint9_radial_146_2414" cx="0" cy="0" r="1" gradientUnits="userSpaceOnUse" gradientTransform="translate(429.333 932.981) rotate(90) scale(19.3296)">
<stop offset="0.649111" stop-color="#171717"/>
<stop offset="1" stop-color="#171717" stop-opacity="0"/>
</radialGradient>
<radialGradient id="paint10_radial_146_2414" cx="0" cy="0" r="1" gradientUnits="userSpaceOnUse" gradientTransform="translate(806.667 932.981) rotate(90) scale(19.3296)">
<stop offset="0.649111" stop-color="#171717"/>
<stop offset="1" stop-color="#171717" stop-opacity="0"/>
</radialGradient>
<radialGradient id="paint11_radial_146_2414" cx="0" cy="0" r="1" gradientUnits="userSpaceOnUse" gradientTransform="translate(1184 932.981) rotate(90) scale(19.3296)">
<stop offset="0.649111" stop-color="#171717"/>
<stop offset="1" stop-color="#171717" stop-opacity="0"/>
</radialGradient>
<linearGradient id="paint12_linear_146_2414" x1="613.964" y1="-24.7976" x2="613.964" y2="94.2637" gradientUnits="userSpaceOnUse">
<stop offset="0.345" stop-color="#171717"/>
<stop offset="1" stop-color="#171717" stop-opacity="0"/>
</linearGradient>
<linearGradient id="paint13_linear_146_2414" x1="612.969" y1="0" x2="612.969" y2="119.061" gradientUnits="userSpaceOnUse">
<stop offset="0.345" stop-color="#171717"/>
<stop offset="1" stop-color="#171717" stop-opacity="0"/>
</linearGradient>
</defs>
</svg>
