<svg width="80" height="78" viewBox="0 0 80 78" fill="none" xmlns="http://www.w3.org/2000/svg">
<g clip-path="url(#clip0_90_72)">
<path d="M73.4642 25.1635C71.993 25.1635 70.5976 24.5719 69.5662 23.5254C61.7096 15.5323 51.2291 11.1338 40.0509 11.1338C28.8727 11.1338 18.3922 15.5323 10.5356 23.5406C9.50426 24.5871 8.10888 25.1786 6.63767 25.1786C5.21196 25.1786 3.83174 24.6175 2.81554 23.6012L2.80038 23.5861C0.707307 21.4778 0.69214 18.0956 2.75487 15.9721C22.912 -4.64008 55.9461 -5.00409 76.5431 15.1531C76.8161 15.411 77.074 15.684 77.347 15.957C79.4097 18.0804 79.3946 21.4778 77.3015 23.5709L77.2863 23.5861C76.2701 24.6023 74.8899 25.1786 73.4642 25.1635Z" fill="#009849"/>
<path d="M17.2994 35.811C14.2963 35.811 11.8695 33.3842 11.8695 30.3963C11.8695 28.9858 12.4155 27.6207 13.4014 26.6197C27.6737 11.8923 51.1676 11.5283 65.895 25.7855C66.1831 26.0585 66.4561 26.3315 66.7291 26.6197C68.8071 28.7734 68.7616 32.2012 66.6078 34.2943C65.5916 35.2801 64.2266 35.8262 62.816 35.8262C61.3751 35.8262 59.9798 35.2498 58.9787 34.2033C48.8774 23.7531 32.2238 23.4649 21.7737 33.5662C21.5613 33.7786 21.349 33.9909 21.1366 34.2033C20.1204 35.2346 18.7402 35.811 17.2994 35.811Z" fill="#009849"/>
<path d="M40.0501 16.2299C30.2521 16.2299 20.8636 20.2037 14.0384 27.2412C12.3245 29.0158 12.3397 31.8217 14.0839 33.566C15.8281 35.3254 18.6644 35.3405 20.4238 33.5963C20.439 33.5811 20.4541 33.566 20.4693 33.5508C30.9195 22.7366 48.1494 22.4484 58.9636 32.8986C59.1911 33.111 59.4034 33.3385 59.6158 33.5508C61.36 35.3254 64.1962 35.3405 65.9556 33.6115C65.9708 33.5963 65.986 33.5811 66.0011 33.566C67.7454 31.8217 67.7605 29.0006 66.0466 27.2412C59.2366 20.2037 49.8481 16.2299 40.0501 16.2299Z" fill="#009849"/>
<path d="M52.2156 46.4282C50.714 46.4282 49.2731 45.8063 48.2418 44.7143C43.9343 40.1945 36.7906 40.0125 32.2707 44.32C32.1342 44.4413 32.0129 44.5778 31.8764 44.7143C30.8299 45.8063 29.4041 46.4282 27.8874 46.4282C26.4617 46.4282 25.0815 45.867 24.0805 44.8508L24.0653 44.8356C21.9874 42.7577 21.9571 39.3906 24.0046 37.2824C32.4072 28.4096 46.4065 28.0304 55.2793 36.433C55.5675 36.706 55.8557 36.9942 56.1287 37.2824C58.1914 39.4361 58.1156 42.8639 55.9618 44.9266C54.9456 45.8822 53.6109 46.413 52.2156 46.4282Z" fill="#009849"/>
<path d="M40.0511 31.2761C34.2269 31.2761 28.6605 33.6725 24.6412 37.9041C22.9425 39.6787 22.988 42.4695 24.717 44.2137C26.4916 45.9731 29.3582 45.9579 31.1176 44.1834C31.1479 44.153 31.1783 44.1227 31.2086 44.0924C35.8649 39.2085 43.585 39.0265 48.4688 43.6677C48.6205 43.8042 48.757 43.9407 48.8935 44.0924C50.6074 45.9124 53.474 46.0034 55.2941 44.3047C55.3244 44.2744 55.3547 44.244 55.3851 44.2137C57.1141 42.4846 57.1445 39.6787 55.4609 37.9041C51.4416 33.6725 45.8752 31.2609 40.0511 31.2761Z" fill="#009849"/>
<path fill-rule="evenodd" clip-rule="evenodd" d="M46.0077 51.7722L45.739 67.1937C45.6874 70.159 43.2688 72.5357 40.3031 72.5357H38.9469C35.9742 72.5357 33.5527 70.1482 33.5107 67.1759L33.2924 51.7365C33.2897 51.6597 33.2884 51.5826 33.2884 51.5052C33.2884 47.9433 36.1361 45.0574 39.6507 45.0574C43.1529 45.0574 45.9928 47.9228 46.013 51.4671H46.013L46.013 51.4685C46.0131 51.4807 46.0131 51.493 46.0131 51.5052C46.0131 51.5946 46.0113 51.6837 46.0077 51.7722Z" fill="black"/>
</g>
<defs>
<clipPath id="clip0_90_72">
<rect width="78.1529" height="77.8133" fill="white" transform="translate(0.883362 0.175415)"/>
</clipPath>
</defs>
</svg>
