<svg width="671" height="80" viewBox="0 0 671 80" fill="none" xmlns="http://www.w3.org/2000/svg">
<rect x="107.619" y="0.810425" width="9.38121" height="22.5998" rx="4.6906" fill="white"/>
<path fill-rule="evenodd" clip-rule="evenodd" d="M101.132 6.39343C100.572 6.60967 100.017 6.84309 99.4675 7.09368C95.4594 8.88932 91.9323 11.3904 88.8861 14.5969C85.8399 17.8034 83.4511 21.5229 81.7196 25.7555C79.9881 29.956 79.1223 34.4611 79.1223 39.2709C79.1223 44.0806 79.9881 48.6018 81.7196 52.8344C83.4511 57.0349 85.8399 60.7384 88.8861 63.9449C91.9323 67.1514 95.4594 69.6685 99.4675 71.4962C103.476 73.2918 107.756 74.1896 112.31 74.1896C116.895 74.1896 121.192 73.2918 125.2 71.4962C129.208 69.6685 132.735 67.1514 135.781 63.9449C138.827 60.7384 141.2 57.0349 142.9 52.8344C144.631 48.6018 145.497 44.0806 145.497 39.2709C145.497 34.4611 144.631 29.956 142.9 25.7555C141.2 21.5229 138.827 17.8034 135.781 14.5969C132.735 11.3904 129.208 8.88932 125.2 7.09368C124.94 6.97534 124.679 6.86082 124.417 6.75014V18.0654C125.958 19.0914 127.373 20.308 128.663 21.7153C130.811 23.9919 132.478 26.6373 133.665 29.6514C134.883 32.6655 135.493 35.872 135.493 39.2709C135.493 42.6698 134.883 45.8763 133.665 48.8904C132.478 51.8724 130.811 54.5178 128.663 56.8264C126.546 59.1031 124.093 60.8987 121.304 62.2134C118.514 63.528 115.516 64.1853 112.31 64.1853C109.103 64.1853 106.105 63.544 103.315 62.2614C100.526 60.9468 98.0567 59.1511 95.9083 56.8745C93.792 54.5659 92.1247 51.9205 90.9062 48.9385C89.7198 45.9244 89.1266 42.7018 89.1266 39.2709C89.1266 35.872 89.7198 32.6815 90.9062 29.6995C92.1247 26.6854 93.792 24.04 95.9083 21.7634C97.4782 20.0764 99.2193 18.6548 101.132 17.4985V6.39343Z" fill="white"/>
<path d="M157.497 73.6682V6.33179H168.319L199.245 55.5836V6.33179H209.25V73.6682H198.428L167.501 24.4164V73.6682H157.497Z" fill="white"/>
<path d="M254.389 74.8947C249.707 74.8947 245.346 73.9969 241.306 72.2013C237.298 70.3736 233.787 67.8565 230.773 64.65C227.791 61.4114 225.45 57.6758 223.751 53.4433C222.083 49.2107 221.25 44.7056 221.25 39.9279C221.25 34.8937 222.147 30.2603 223.943 26.0277C225.739 21.7952 228.192 18.1237 231.302 15.0134C234.412 11.8711 237.955 9.43412 241.931 7.70261C245.94 5.9711 250.14 5.10535 254.533 5.10535C259.503 5.10535 264.281 6.25969 268.866 8.56836C273.451 10.877 277.443 14.3401 280.842 18.9574L271.896 23.8153C269.587 20.9294 266.894 18.749 263.816 17.274C260.77 15.799 257.643 15.0615 254.437 15.0615C251.326 15.0615 248.376 15.7028 245.587 16.9854C242.797 18.2359 240.328 19.9995 238.18 22.2761C236.031 24.5207 234.332 27.166 233.081 30.2122C231.863 33.2263 231.254 36.513 231.254 40.0722C231.254 43.5031 231.847 46.7257 233.033 49.7398C234.252 52.7539 235.919 55.3992 238.036 57.6758C240.184 59.9204 242.653 61.684 245.443 62.9666C248.264 64.2492 251.278 64.8905 254.485 64.8905C256.858 64.8905 259.134 64.5057 261.315 63.7361C263.495 62.9666 265.515 61.8764 267.375 60.4655C269.267 59.0226 270.918 57.3071 272.329 55.3191C273.74 53.331 274.862 51.1186 275.696 48.6816H261.411V39.8317H287.432C287.496 44.6414 286.662 49.1626 284.931 53.3952C283.231 57.6278 280.858 61.3633 277.812 64.6019C274.798 67.8084 271.287 70.3255 267.279 72.1532C263.271 73.9809 258.974 74.8947 254.389 74.8947Z" fill="white"/>
<ellipse cx="250.773" cy="30.579" rx="8.36495" ry="8.36497" fill="#009849"/>
<g clip-path="url(#clip0_89_107)">
<path d="M73.4642 26.1635C71.993 26.1635 70.5976 25.5719 69.5662 24.5254C61.7096 16.5323 51.2291 12.1338 40.0509 12.1338C28.8727 12.1338 18.3922 16.5323 10.5356 24.5406C9.50426 25.5871 8.10888 26.1786 6.63767 26.1786C5.21196 26.1786 3.83174 25.6175 2.81554 24.6012L2.80038 24.5861C0.707307 22.4778 0.69214 19.0956 2.75487 16.9721C22.912 -3.64008 55.9461 -4.00409 76.5431 16.1531C76.8161 16.411 77.074 16.684 77.347 16.957C79.4097 19.0804 79.3946 22.4778 77.3015 24.5709L77.2863 24.5861C76.2701 25.6023 74.8899 26.1786 73.4642 26.1635Z" fill="#009849"/>
<path d="M17.2994 36.811C14.2963 36.811 11.8695 34.3842 11.8695 31.3963C11.8695 29.9858 12.4155 28.6207 13.4014 27.6197C27.6737 12.8923 51.1676 12.5283 65.895 26.7855C66.1831 27.0585 66.4561 27.3315 66.7291 27.6197C68.8071 29.7734 68.7616 33.2012 66.6078 35.2943C65.5916 36.2801 64.2266 36.8262 62.816 36.8262C61.3751 36.8262 59.9798 36.2498 58.9787 35.2033C48.8774 24.7531 32.2238 24.4649 21.7737 34.5662C21.5613 34.7786 21.349 34.9909 21.1366 35.2033C20.1204 36.2346 18.7402 36.811 17.2994 36.811Z" fill="#009849"/>
<path d="M40.0501 17.2299C30.2521 17.2299 20.8636 21.2037 14.0384 28.2412C12.3245 30.0158 12.3397 32.8217 14.0839 34.566C15.8281 36.3254 18.6644 36.3405 20.4238 34.5963C20.439 34.5811 20.4541 34.566 20.4693 34.5508C30.9195 23.7366 48.1494 23.4484 58.9636 33.8986C59.1911 34.111 59.4034 34.3385 59.6158 34.5508C61.36 36.3254 64.1962 36.3405 65.9556 34.6115C65.9708 34.5963 65.986 34.5811 66.0011 34.566C67.7454 32.8217 67.7605 30.0006 66.0466 28.2412C59.2366 21.2037 49.8481 17.2299 40.0501 17.2299Z" fill="#009849"/>
<path d="M52.2155 47.4282C50.714 47.4282 49.2731 46.8063 48.2417 45.7143C43.9342 41.1945 36.7905 41.0125 32.2707 45.32C32.1342 45.4413 32.0128 45.5778 31.8763 45.7143C30.8298 46.8063 29.4041 47.4282 27.8874 47.4282C26.4617 47.4282 25.0814 46.867 24.0804 45.8508L24.0652 45.8356C21.9873 43.7577 21.957 40.3906 24.0046 38.2824C32.4072 29.4096 46.4065 29.0304 55.2793 37.433C55.5674 37.706 55.8556 37.9942 56.1286 38.2824C58.1914 40.4361 58.1155 43.8639 55.9618 45.9266C54.9456 46.8822 53.6109 47.413 52.2155 47.4282Z" fill="#009849"/>
<path d="M40.0511 32.2761C34.2269 32.2761 28.6605 34.6725 24.6412 38.9041C22.9425 40.6787 22.988 43.4695 24.717 45.2137C26.4916 46.9731 29.3582 46.9579 31.1176 45.1834C31.1479 45.153 31.1783 45.1227 31.2086 45.0924C35.8649 40.2085 43.585 40.0265 48.4688 44.6677C48.6205 44.8042 48.757 44.9407 48.8935 45.0924C50.6074 46.9124 53.474 47.0034 55.2941 45.3047C55.3244 45.2744 55.3547 45.244 55.3851 45.2137C57.1141 43.4846 57.1445 40.6787 55.4609 38.9041C51.4416 34.6725 45.8752 32.2609 40.0511 32.2761Z" fill="#009849"/>
<path fill-rule="evenodd" clip-rule="evenodd" d="M46.0077 52.7722L45.739 68.1937C45.6873 71.159 43.2688 73.5357 40.3031 73.5357H38.9468C35.9741 73.5357 33.5526 71.1482 33.5106 68.1759L33.2923 52.7365C33.2897 52.6597 33.2883 52.5826 33.2883 52.5052C33.2883 48.9433 36.136 46.0574 39.6507 46.0574C43.1529 46.0574 45.9927 48.9228 46.0129 52.4671H46.013L46.0129 52.4685C46.013 52.4807 46.013 52.493 46.013 52.5052C46.013 52.5946 46.0112 52.6837 46.0077 52.7722Z" fill="white"/>
</g>
<path fill-rule="evenodd" clip-rule="evenodd" d="M316.259 1.3125C310.185 1.3125 305.262 6.23599 305.262 12.3094V68.1288C305.262 74.2022 310.185 79.1257 316.259 79.1257H623.646C629.719 79.1257 634.642 74.2022 634.642 68.1288V12.3094C634.642 6.23599 629.719 1.3125 623.646 1.3125H316.259ZM339.886 61.3201C337.235 61.3201 334.743 60.7974 332.41 59.7521C330.076 58.6881 328.023 57.2227 326.25 55.3561C324.495 53.4894 323.114 51.3334 322.106 48.8881C321.116 46.4241 320.622 43.7921 320.622 40.9921C320.622 38.1734 321.116 35.5414 322.106 33.0961C323.114 30.6321 324.495 28.4761 326.25 26.6281C328.023 24.7614 330.076 23.3054 332.41 22.2601C334.743 21.1961 337.235 20.6641 339.886 20.6641C343.059 20.6641 345.98 21.4014 348.65 22.8761C351.319 24.3321 353.531 26.2827 355.286 28.7281L349.182 32.0041C348.08 30.6414 346.708 29.5494 345.066 28.7281C343.442 27.9067 341.715 27.4961 339.886 27.4961C338.168 27.4961 336.554 27.8507 335.042 28.5601C333.53 29.2507 332.204 30.2214 331.066 31.4721C329.927 32.7041 329.04 34.1414 328.406 35.7841C327.771 37.4081 327.454 39.1441 327.454 40.9921C327.454 42.8587 327.771 44.6041 328.406 46.2281C329.059 47.8521 329.955 49.2894 331.094 50.5401C332.232 51.7721 333.548 52.7427 335.042 53.4521C336.554 54.1427 338.168 54.4881 339.886 54.4881C341.752 54.4881 343.488 54.0774 345.094 53.2561C346.718 52.4161 348.08 51.3147 349.182 49.9521L355.286 53.2561C353.531 55.6827 351.319 57.6334 348.65 59.1081C345.98 60.5827 343.059 61.3201 339.886 61.3201ZM385.831 61.3201C383.181 61.3201 380.689 60.7974 378.355 59.7521C376.022 58.6881 373.969 57.2227 372.195 55.3561C370.422 53.4894 369.031 51.3334 368.023 48.8881C367.015 46.4241 366.511 43.7921 366.511 40.9921C366.511 38.1921 367.015 35.5694 368.023 33.1241C369.031 30.6601 370.422 28.4947 372.195 26.6281C373.969 24.7614 376.022 23.3054 378.355 22.2601C380.689 21.1961 383.181 20.6641 385.831 20.6641C388.501 20.6641 391.002 21.1961 393.335 22.2601C395.669 23.3054 397.722 24.7614 399.495 26.6281C401.269 28.4947 402.65 30.6601 403.639 33.1241C404.647 35.5694 405.151 38.1921 405.151 40.9921C405.151 43.7921 404.647 46.4241 403.639 48.8881C402.65 51.3334 401.269 53.4894 399.495 55.3561C397.722 57.2227 395.669 58.6881 393.335 59.7521C391.002 60.7974 388.501 61.3201 385.831 61.3201ZM385.831 54.4881C387.549 54.4881 389.163 54.1334 390.675 53.4241C392.187 52.7147 393.513 51.7441 394.651 50.5121C395.809 49.2614 396.705 47.8241 397.339 46.2001C397.993 44.5761 398.319 42.8401 398.319 40.9921C398.319 39.1441 397.993 37.4081 397.339 35.7841C396.686 34.1414 395.781 32.7041 394.623 31.4721C393.485 30.2401 392.159 29.2694 390.647 28.5601C389.154 27.8507 387.549 27.4961 385.831 27.4961C384.114 27.4961 382.499 27.8507 380.987 28.5601C379.475 29.2694 378.141 30.2494 376.983 31.5001C375.845 32.7321 374.949 34.1601 374.295 35.7841C373.661 37.4081 373.343 39.1441 373.343 40.9921C373.343 42.8587 373.67 44.6041 374.323 46.2281C374.977 47.8521 375.873 49.2894 377.011 50.5401C378.169 51.7721 379.494 52.7427 380.987 53.4521C382.499 54.1427 384.114 54.4881 385.831 54.4881ZM424.905 21.3921H417.513V60.5921H424.345V33.7401L440.921 60.5921H448.285V21.3921H441.453V48.2441L424.905 21.3921ZM462.308 21.3921H469.7L486.248 48.2441V21.3921H493.08V60.5921H485.716L469.14 33.7401V60.5921H462.308V21.3921ZM531.688 21.3921H507.104V60.5921H531.688V53.7601H513.936V43.0081H528.02V36.1761H513.936V28.2241H531.688V21.3921ZM563.098 61.3201C560.448 61.3201 557.956 60.7974 555.622 59.7521C553.289 58.6881 551.236 57.2227 549.462 55.3561C547.708 53.4894 546.326 51.3334 545.318 48.8881C544.329 46.4241 543.834 43.7921 543.834 40.9921C543.834 38.1734 544.329 35.5414 545.318 33.0961C546.326 30.6321 547.708 28.4761 549.462 26.6281C551.236 24.7614 553.289 23.3054 555.622 22.2601C557.956 21.1961 560.448 20.6641 563.098 20.6641C566.272 20.6641 569.193 21.4014 571.862 22.8761C574.532 24.3321 576.744 26.2827 578.498 28.7281L572.394 32.0041C571.293 30.6414 569.921 29.5494 568.278 28.7281C566.654 27.9067 564.928 27.4961 563.098 27.4961C561.381 27.4961 559.766 27.8507 558.254 28.5601C556.742 29.2507 555.417 30.2214 554.278 31.4721C553.14 32.7041 552.253 34.1414 551.618 35.7841C550.984 37.4081 550.666 39.1441 550.666 40.9921C550.666 42.8587 550.984 44.6041 551.618 46.2281C552.272 47.8521 553.168 49.2894 554.306 50.5401C555.445 51.7721 556.761 52.7427 558.254 53.4521C559.766 54.1427 561.381 54.4881 563.098 54.4881C564.965 54.4881 566.701 54.0774 568.306 53.2561C569.93 52.4161 571.293 51.3147 572.394 49.9521L578.498 53.2561C576.744 55.6827 574.532 57.6334 571.862 59.1081C569.193 60.5827 566.272 61.3201 563.098 61.3201ZM620.797 28.2241V21.3921H589.997V28.2241H601.981V60.5921H608.813V28.2241H620.797Z" fill="#009849"/>
<path d="M651.586 60.4844V62.5234H648.141V72H645.719V62.5234H642.258V60.4844H651.586ZM655.203 72H652.961V60.4844H656.461L658.555 69.5391L660.633 60.4844H664.094V72H661.852V64.2109C661.852 63.987 661.854 63.6745 661.859 63.2734C661.865 62.8672 661.867 62.5547 661.867 62.3359L659.688 72H657.352L655.188 62.3359C655.188 62.5547 655.19 62.8672 655.195 63.2734C655.201 63.6745 655.203 63.987 655.203 64.2109V72Z" fill="#009849"/>
<defs>
<clipPath id="clip0_89_107">
<rect width="78.1529" height="77.8133" fill="white" transform="translate(0.883301 1.17542)"/>
</clipPath>
</defs>
</svg>
