<svg width="36" height="37" viewBox="0 0 36 37" fill="none" xmlns="http://www.w3.org/2000/svg">
<rect y="0.612305" width="36" height="36" rx="4" fill="#D6EFD8"/>
<path d="M30.3628 19.44L22.6442 12.7605L21.713 10.4019C21.6421 10.2219 21.4763 10.0966 21.2833 10.0776C21.0906 10.0589 20.9033 10.1497 20.7989 10.3124L9.29248 28.2107H21.0571L23.0343 23.2097L27.6416 24.1248C28.3479 24.2805 29.0797 24.009 29.5132 23.4306L30.6311 21.9403C31.2121 21.1654 31.095 20.0735 30.3628 19.44Z" fill="#1A5319"/>
<path d="M13.8526 15.1273C13.0967 16.1275 14.2571 17.0448 13.5014 18.0456C12.7455 19.0458 11.5853 18.1288 10.8293 19.129C10.0734 20.1292 11.2337 21.0468 10.4784 22.047C9.72281 23.0472 8.5622 22.1299 7.80663 23.1297C7.051 24.1299 8.21166 25.0472 7.45568 26.0477C6.70011 27.0479 5.34648 26.6501 5 28.211H8.12178L17.6718 13.5195C15.9306 14.235 14.6086 14.1265 13.8526 15.1273Z" fill="#1A5319"/>
<path d="M28.8373 9.41818C28.8895 9.28686 28.8414 9.1366 28.7224 9.05997C28.6034 8.98405 28.4468 9.00305 28.3493 9.10557L27.2441 10.269L28.4427 10.4041L28.8373 9.41818Z" fill="#1A5319"/>
<path d="M27.3789 13.0641L24.8583 12.7803L24.4653 13.1938L26.6334 14.9284L27.3789 13.0641Z" fill="#1A5319"/>
<path d="M28.1254 11.1967L26.5329 11.0176L25.5693 12.0314L27.696 12.2706L28.1254 11.1967Z" fill="#1A5319"/>
</svg>
