<svg width="37" height="37" viewBox="0 0 37 37" fill="none" xmlns="http://www.w3.org/2000/svg">
<rect x="0.157227" y="0.612305" width="36" height="36" rx="4" fill="#D6EFD8"/>
<g clip-path="url(#clip0_665_911)">
<path d="M29.126 11.3001C28.0039 11.3001 27.0947 12.2101 27.0947 13.3314C27.0947 13.5621 27.1419 13.7791 27.2117 13.9854L22.2604 18.2486C21.9134 17.9716 21.4795 17.7993 21.001 17.7993C20.4485 17.7993 19.9496 18.0211 19.584 18.3786L15.7051 16.4367C15.6295 15.3837 14.761 14.5493 13.6885 14.5493C12.5672 14.5493 11.6572 15.4593 11.6572 16.5806C11.6572 16.8877 11.7304 17.1753 11.8522 17.4361L7.89779 21.9959C7.67598 21.913 7.43954 21.861 7.18848 21.861C6.06641 21.861 5.15723 22.7702 5.15723 23.8923C5.15723 25.0143 6.06641 25.9235 7.18848 25.9235C8.31054 25.9235 9.21973 25.0143 9.21973 23.8923C9.21973 23.6225 9.16448 23.3649 9.0686 23.1293L13.0872 18.5103C13.279 18.5696 13.4772 18.611 13.6885 18.611C14.2792 18.611 14.8073 18.3543 15.1786 17.9504L18.9722 19.8525C18.986 20.9632 19.8879 21.8602 21.001 21.8602C22.123 21.8602 23.0322 20.951 23.0322 19.8289C23.0322 19.7932 23.0233 19.7591 23.0217 19.7233L28.3054 15.1839C28.5564 15.2952 28.8327 15.3594 29.126 15.3594C30.248 15.3594 31.1572 14.4502 31.1572 13.3281C31.1572 12.2061 30.248 11.2969 29.126 11.2969V11.3001Z" fill="#1A5319"/>
</g>
<defs>
<clipPath id="clip0_665_911">
<rect width="26" height="26" fill="white" transform="translate(5.15723 5.6123)"/>
</clipPath>
</defs>
</svg>
