<svg width="37" height="37" viewBox="0 0 37 37" fill="none" xmlns="http://www.w3.org/2000/svg">
<rect x="0.157227" y="0.612305" width="36" height="36" rx="4" fill="#D6EFD8"/>
<path d="M22.3124 24.9882C20.6332 25.8239 18.7567 26.3191 16.8648 26.3191C13.6844 26.3191 11.0186 24.7676 11.0186 24.7676C10.3957 24.7676 9.64898 27.2786 8.56952 27.2786C7.52487 27.2786 7.01416 26.3501 7.01416 25.7891C7.01416 24.5084 9.47487 23.5102 9.47487 22.7983C9.47487 22.7983 8.99124 21.978 8.99124 20.5078C8.99124 16.5923 12.1368 13.7989 15.6692 12.642C18.2189 11.8063 23.6395 12.7774 25.3689 11.1525C26.0537 10.5257 26.3904 9.94531 27.435 9.94531C28.8395 9.94531 29.2999 13.5513 29.2999 14.5998C29.2999 18.8905 27.1912 22.5894 22.3124 24.9882ZM12.4734 22.0632C14.9302 18.5849 18.0642 17.0798 22.4439 17.4203C22.7844 17.4474 23.0823 17.192 23.1094 16.8516C23.1365 16.5111 22.8811 16.2132 22.5406 16.1861C17.743 15.8146 14.1874 17.4977 11.4636 21.3513C11.2662 21.6298 11.332 22.0167 11.6106 22.2141C11.8892 22.4114 12.2761 22.3456 12.4734 22.0632Z" fill="#1A5319"/>
</svg>
