<svg width="36" height="37" viewBox="0 0 36 37" fill="none" xmlns="http://www.w3.org/2000/svg">
<rect y="0.612305" width="36" height="36" rx="4" fill="#D6EFD8"/>
<path d="M11.9333 22.9458H20.6C20.8394 22.9458 21.0333 22.7518 21.0333 22.5125V18.1791V13.8458V9.51242C21.0333 9.27309 20.8394 9.0791 20.6 9.0791H11.9333C11.694 9.0791 11.5 9.27309 11.5 9.51242V13.8457V18.1791V22.5125C11.5 22.7518 11.694 22.9458 11.9333 22.9458ZM20.1667 17.7458H12.3667V14.2791H20.1667V17.7458ZM20.1667 22.0791H12.3667V18.6124H20.1667V22.0791ZM12.3667 9.94574H20.1667V13.4124H12.3667V9.94574Z" fill="#1A5319"/>
<path d="M22.3332 12.1127H24.0665C24.3059 12.1127 24.4999 11.9187 24.4999 11.6794V9.94601C24.4999 9.70668 24.3059 9.5127 24.0665 9.5127H22.3332C22.0939 9.5127 21.8999 9.70668 21.8999 9.94601V11.6793C21.8999 11.9187 22.0939 12.1127 22.3332 12.1127ZM22.7666 10.3794H23.6333V11.2461H22.7666V10.3794Z" fill="#1A5319"/>
<path d="M22.3332 15.5795H24.0665C24.3059 15.5795 24.4999 15.3855 24.4999 15.1462V13.4128C24.4999 13.1735 24.3059 12.9795 24.0665 12.9795H22.3332C22.0939 12.9795 21.8999 13.1735 21.8999 13.4128V15.1461C21.8999 15.3855 22.0939 15.5795 22.3332 15.5795ZM22.7666 13.8461H23.6333V14.7128H22.7666V13.8461Z" fill="#1A5319"/>
<path d="M22.3332 19.0462H24.0665C24.3059 19.0462 24.4999 18.8523 24.4999 18.6129V16.8796C24.4999 16.6403 24.3059 16.4463 24.0665 16.4463H22.3332C22.0939 16.4463 21.8999 16.6403 21.8999 16.8796V18.6129C21.8999 18.8523 22.0939 19.0462 22.3332 19.0462ZM22.7666 17.3129H23.6333V18.1796H22.7666V17.3129Z" fill="#1A5319"/>
<path d="M22.3332 22.5111H24.0665C24.3059 22.5111 24.4999 22.3171 24.4999 22.0778V20.3444C24.4999 20.1051 24.3059 19.9111 24.0665 19.9111H22.3332C22.0939 19.9111 21.8999 20.1051 21.8999 20.3444V22.0778C21.8999 22.3171 22.0939 22.5111 22.3332 22.5111ZM22.7666 20.7778H23.6333V21.6445H22.7666V20.7778Z" fill="#1A5319"/>
<path d="M11.9333 27.2782H24.0667C24.306 27.2782 24.5 27.0841 24.5 26.8448V24.2448C24.5 24.0055 24.306 23.8115 24.0667 23.8115H11.9333C11.694 23.8115 11.5 24.0056 11.5 24.2448V26.8448C11.5 27.0841 11.694 27.2782 11.9333 27.2782ZM12.3667 24.6782H23.6334V26.4115H12.3667V24.6782Z" fill="#1A5319"/>
<path d="M30.5667 30.7458H25.3667V29.0124H25.8C26.0394 29.0124 26.2334 28.8184 26.2334 28.579V7.77899V6.04562C26.2334 5.80629 26.0394 5.6123 25.8 5.6123H10.2C9.96068 5.6123 9.76669 5.80634 9.76669 6.04562V7.77894V28.579C9.76669 28.8183 9.96068 29.0123 10.2 29.0123H10.6333V30.7457H5.43332C5.19398 30.7457 5 30.9398 5 31.179C5 31.4183 5.19398 31.6124 5.43332 31.6124H30.5667C30.806 31.6124 31 31.4183 31 31.179C31 30.9398 30.806 30.7458 30.5667 30.7458ZM25.3667 28.1457H24.9334H11.0667H10.6334V8.21231H25.3667V28.1457ZM10.6333 6.47899H25.3667V7.34568H10.6333V6.47899ZM24.5 29.0124V30.7457H11.5V29.0124H24.5Z" fill="#1A5319"/>
<path d="M13.6667 10.8115C13.4274 10.8115 13.2334 11.0055 13.2334 11.2448V12.1115C13.2334 12.3509 13.4274 12.5448 13.6667 12.5448C13.906 12.5448 14.1 12.3509 14.1 12.1115V11.2448C14.1 11.0055 13.906 10.8115 13.6667 10.8115Z" fill="#1A5319"/>
<path d="M15.3996 10.8115C15.1603 10.8115 14.9663 11.0055 14.9663 11.2448V12.1115C14.9663 12.3509 15.1603 12.5448 15.3996 12.5448C15.639 12.5448 15.8329 12.3509 15.8329 12.1115V11.2448C15.8329 11.0055 15.639 10.8115 15.3996 10.8115Z" fill="#1A5319"/>
<path d="M17.1335 10.8115C16.8942 10.8115 16.7002 11.0055 16.7002 11.2448V12.1115C16.7002 12.3509 16.8942 12.5448 17.1335 12.5448C17.3728 12.5448 17.5668 12.3509 17.5668 12.1115V11.2448C17.5669 11.0055 17.3728 10.8115 17.1335 10.8115Z" fill="#1A5319"/>
<path d="M18.8664 10.8115C18.6271 10.8115 18.4331 11.0055 18.4331 11.2448V12.1115C18.4331 12.3509 18.6271 12.5448 18.8664 12.5448C19.1058 12.5448 19.2997 12.3509 19.2997 12.1115V11.2448C19.2997 11.0055 19.1057 10.8115 18.8664 10.8115Z" fill="#1A5319"/>
<path d="M13.6667 16.8779C13.906 16.8779 14.1 16.6839 14.1 16.4445V15.5778C14.1 15.3385 13.906 15.1445 13.6667 15.1445C13.4274 15.1445 13.2334 15.3386 13.2334 15.5778V16.4445C13.2333 16.6839 13.4274 16.8779 13.6667 16.8779Z" fill="#1A5319"/>
<path d="M15.3996 16.8779C15.639 16.8779 15.8329 16.6839 15.8329 16.4445V15.5778C15.8329 15.3385 15.6389 15.1445 15.3996 15.1445C15.1603 15.1445 14.9663 15.3386 14.9663 15.5778V16.4445C14.9663 16.6839 15.1603 16.8779 15.3996 16.8779Z" fill="#1A5319"/>
<path d="M17.1335 16.8779C17.3728 16.8779 17.5668 16.6839 17.5668 16.4445V15.5778C17.5668 15.3385 17.3728 15.1445 17.1335 15.1445C16.8942 15.1445 16.7002 15.3386 16.7002 15.5778V16.4445C16.7002 16.6839 16.8942 16.8779 17.1335 16.8779Z" fill="#1A5319"/>
<path d="M18.8664 16.8779C19.1058 16.8779 19.2997 16.6839 19.2997 16.4445V15.5778C19.2997 15.3385 19.1057 15.1445 18.8664 15.1445C18.6271 15.1445 18.4331 15.3386 18.4331 15.5778V16.4445C18.4331 16.6839 18.6271 16.8779 18.8664 16.8779Z" fill="#1A5319"/>
<path d="M13.6667 21.2118C13.906 21.2118 14.1 21.0179 14.1 20.7785V19.9118C14.1 19.6725 13.906 19.4785 13.6667 19.4785C13.4274 19.4785 13.2334 19.6725 13.2334 19.9118V20.7785C13.2333 21.0178 13.4274 21.2118 13.6667 21.2118Z" fill="#1A5319"/>
<path d="M15.3996 21.2118C15.639 21.2118 15.8329 21.0179 15.8329 20.7785V19.9118C15.8329 19.6725 15.6389 19.4785 15.3996 19.4785C15.1603 19.4785 14.9663 19.6725 14.9663 19.9118V20.7785C14.9663 21.0178 15.1603 21.2118 15.3996 21.2118Z" fill="#1A5319"/>
<path d="M17.1335 21.2118C17.3728 21.2118 17.5668 21.0179 17.5668 20.7785V19.9118C17.5668 19.6725 17.3728 19.4785 17.1335 19.4785C16.8942 19.4785 16.7002 19.6725 16.7002 19.9118V20.7785C16.7002 21.0178 16.8942 21.2118 17.1335 21.2118Z" fill="#1A5319"/>
<path d="M18.8664 21.2118C19.1058 21.2118 19.2997 21.0179 19.2997 20.7785V19.9118C19.2997 19.6725 19.1057 19.4785 18.8664 19.4785C18.6271 19.4785 18.4331 19.6725 18.4331 19.9118V20.7785C18.4331 21.0178 18.6271 21.2118 18.8664 21.2118Z" fill="#1A5319"/>
</svg>
