<svg width="36" height="37" viewBox="0 0 36 37" fill="none" xmlns="http://www.w3.org/2000/svg">
<rect y="0.434082" width="36" height="36" rx="4" fill="#D6EFD8"/>
<path d="M11.9333 22.7672H20.6C20.8394 22.7672 21.0333 22.5732 21.0333 22.3339V18.0005V13.6672V9.33383C21.0333 9.0945 20.8394 8.90051 20.6 8.90051H11.9333C11.694 8.90051 11.5 9.0945 11.5 9.33383V13.6672V18.0005V22.3339C11.5 22.5732 11.694 22.7672 11.9333 22.7672ZM20.1667 17.5672H12.3667V14.1005H20.1667V17.5672ZM20.1667 21.9005H12.3667V18.4339H20.1667V21.9005ZM12.3667 9.76715H20.1667V13.2338H12.3667V9.76715Z" fill="#1A5319"/>
<path d="M22.3332 11.9347H24.0665C24.3059 11.9347 24.4999 11.7407 24.4999 11.5014V9.76803C24.4999 9.5287 24.3059 9.33472 24.0665 9.33472H22.3332C22.0939 9.33472 21.8999 9.5287 21.8999 9.76803V11.5014C21.8999 11.7407 22.0939 11.9347 22.3332 11.9347ZM22.7666 10.2014H23.6333V11.0681H22.7666V10.2014Z" fill="#1A5319"/>
<path d="M22.3332 15.4014H24.0665C24.3059 15.4014 24.4999 15.2074 24.4999 14.9681V13.2347C24.4999 12.9954 24.3059 12.8014 24.0665 12.8014H22.3332C22.0939 12.8014 21.8999 12.9954 21.8999 13.2347V14.968C21.8999 15.2074 22.0939 15.4014 22.3332 15.4014ZM22.7666 13.668H23.6333V14.5347H22.7666V13.668Z" fill="#1A5319"/>
<path d="M22.3332 18.8685H24.0665C24.3059 18.8685 24.4999 18.6745 24.4999 18.4352V16.7019C24.4999 16.4625 24.3059 16.2686 24.0665 16.2686H22.3332C22.0939 16.2686 21.8999 16.4625 21.8999 16.7019V18.4352C21.8999 18.6745 22.0939 18.8685 22.3332 18.8685ZM22.7666 17.1352H23.6333V18.0019H22.7666V17.1352Z" fill="#1A5319"/>
<path d="M22.3332 22.333H24.0665C24.3059 22.333 24.4999 22.139 24.4999 21.8997V20.1663C24.4999 19.927 24.3059 19.733 24.0665 19.733H22.3332C22.0939 19.733 21.8999 19.927 21.8999 20.1663V21.8997C21.8999 22.139 22.0939 22.333 22.3332 22.333ZM22.7666 20.5997H23.6333V21.4664H22.7666V20.5997Z" fill="#1A5319"/>
<path d="M11.9333 27.0995H24.0667C24.306 27.0995 24.5 26.9054 24.5 26.6661V24.0661C24.5 23.8268 24.306 23.6328 24.0667 23.6328H11.9333C11.694 23.6328 11.5 23.8268 11.5 24.0661V26.6661C11.5 26.9054 11.694 27.0995 11.9333 27.0995ZM12.3667 24.4994H23.6334V26.2328H12.3667V24.4994Z" fill="#1A5319"/>
<path d="M30.5667 30.5676H25.3667V28.8341H25.8C26.0394 28.8341 26.2334 28.6401 26.2334 28.4008V7.60077V5.8674C26.2334 5.62807 26.0394 5.43408 25.8 5.43408H10.2C9.96068 5.43408 9.76669 5.62812 9.76669 5.8674V7.60072V28.4008C9.76669 28.6401 9.96068 28.8341 10.2 28.8341H10.6333V30.5675H5.43332C5.19398 30.5675 5 30.7615 5 31.0008C5 31.2401 5.19398 31.4341 5.43332 31.4341H30.5667C30.806 31.4341 31 31.2401 31 31.0008C31 30.7615 30.806 30.5676 30.5667 30.5676ZM25.3667 27.9674H24.9334H11.0667H10.6334V8.03409H25.3667V27.9674ZM10.6333 6.30077H25.3667V7.16745H10.6333V6.30077ZM24.5 28.8341V30.5675H11.5V28.8341H24.5Z" fill="#1A5319"/>
<path d="M13.6667 10.6334C13.4274 10.6334 13.2334 10.8274 13.2334 11.0667V11.9334C13.2334 12.1728 13.4274 12.3667 13.6667 12.3667C13.906 12.3667 14.1 12.1728 14.1 11.9334V11.0667C14.1 10.8274 13.906 10.6334 13.6667 10.6334Z" fill="#1A5319"/>
<path d="M15.3996 10.6334C15.1603 10.6334 14.9663 10.8274 14.9663 11.0667V11.9334C14.9663 12.1728 15.1603 12.3667 15.3996 12.3667C15.639 12.3667 15.8329 12.1728 15.8329 11.9334V11.0667C15.8329 10.8274 15.639 10.6334 15.3996 10.6334Z" fill="#1A5319"/>
<path d="M17.1335 10.6334C16.8942 10.6334 16.7002 10.8274 16.7002 11.0667V11.9334C16.7002 12.1728 16.8942 12.3667 17.1335 12.3667C17.3728 12.3667 17.5668 12.1728 17.5668 11.9334V11.0667C17.5669 10.8274 17.3728 10.6334 17.1335 10.6334Z" fill="#1A5319"/>
<path d="M18.8664 10.6334C18.6271 10.6334 18.4331 10.8274 18.4331 11.0667V11.9334C18.4331 12.1728 18.6271 12.3667 18.8664 12.3667C19.1058 12.3667 19.2997 12.1728 19.2997 11.9334V11.0667C19.2997 10.8274 19.1057 10.6334 18.8664 10.6334Z" fill="#1A5319"/>
<path d="M13.6667 16.6996C13.906 16.6996 14.1 16.5056 14.1 16.2663V15.3996C14.1 15.1603 13.906 14.9663 13.6667 14.9663C13.4274 14.9663 13.2334 15.1603 13.2334 15.3996V16.2663C13.2333 16.5056 13.4274 16.6996 13.6667 16.6996Z" fill="#1A5319"/>
<path d="M15.3996 16.6996C15.639 16.6996 15.8329 16.5056 15.8329 16.2663V15.3996C15.8329 15.1603 15.6389 14.9663 15.3996 14.9663C15.1603 14.9663 14.9663 15.1603 14.9663 15.3996V16.2663C14.9663 16.5056 15.1603 16.6996 15.3996 16.6996Z" fill="#1A5319"/>
<path d="M17.1335 16.6996C17.3728 16.6996 17.5668 16.5056 17.5668 16.2663V15.3996C17.5668 15.1603 17.3728 14.9663 17.1335 14.9663C16.8942 14.9663 16.7002 15.1603 16.7002 15.3996V16.2663C16.7002 16.5056 16.8942 16.6996 17.1335 16.6996Z" fill="#1A5319"/>
<path d="M18.8664 16.6996C19.1058 16.6996 19.2997 16.5056 19.2997 16.2663V15.3996C19.2997 15.1603 19.1057 14.9663 18.8664 14.9663C18.6271 14.9663 18.4331 15.1603 18.4331 15.3996V16.2663C18.4331 16.5056 18.6271 16.6996 18.8664 16.6996Z" fill="#1A5319"/>
<path d="M13.6667 21.0337C13.906 21.0337 14.1 20.8398 14.1 20.6004V19.7337C14.1 19.4944 13.906 19.3004 13.6667 19.3004C13.4274 19.3004 13.2334 19.4944 13.2334 19.7337V20.6004C13.2333 20.8397 13.4274 21.0337 13.6667 21.0337Z" fill="#1A5319"/>
<path d="M15.3996 21.0337C15.639 21.0337 15.8329 20.8398 15.8329 20.6004V19.7337C15.8329 19.4944 15.6389 19.3004 15.3996 19.3004C15.1603 19.3004 14.9663 19.4944 14.9663 19.7337V20.6004C14.9663 20.8397 15.1603 21.0337 15.3996 21.0337Z" fill="#1A5319"/>
<path d="M17.1335 21.0337C17.3728 21.0337 17.5668 20.8398 17.5668 20.6004V19.7337C17.5668 19.4944 17.3728 19.3004 17.1335 19.3004C16.8942 19.3004 16.7002 19.4944 16.7002 19.7337V20.6004C16.7002 20.8397 16.8942 21.0337 17.1335 21.0337Z" fill="#1A5319"/>
<path d="M18.8664 21.0337C19.1058 21.0337 19.2997 20.8398 19.2997 20.6004V19.7337C19.2997 19.4944 19.1057 19.3004 18.8664 19.3004C18.6271 19.3004 18.4331 19.4944 18.4331 19.7337V20.6004C18.4331 20.8397 18.6271 21.0337 18.8664 21.0337Z" fill="#1A5319"/>
</svg>
