<svg width="36" height="37" viewBox="0 0 36 37" fill="none" xmlns="http://www.w3.org/2000/svg">
<rect y="0.434082" width="36" height="36" rx="4" fill="#D6EFD8"/>
<path d="M30.3628 19.262L22.6442 12.5825L21.713 10.2239C21.6421 10.0439 21.4763 9.91863 21.2833 9.89963C21.0906 9.88095 20.9033 9.97174 20.7989 10.1344L9.29248 28.0327H21.0571L23.0343 23.0318L27.6416 23.9468C28.3479 24.1025 29.0797 23.831 29.5132 23.2526L30.6311 21.7623C31.2121 20.9874 31.095 19.8955 30.3628 19.262Z" fill="#1A5319"/>
<path d="M13.8526 14.9491C13.0967 15.9493 14.2571 16.8665 13.5014 17.8674C12.7455 18.8676 11.5853 17.9506 10.8293 18.9508C10.0734 19.9509 11.2337 20.8686 10.4784 21.8687C9.72281 22.8689 8.5622 21.9517 7.80663 22.9515C7.051 23.9517 8.21166 24.869 7.45568 25.8695C6.70011 26.8697 5.34648 26.4719 5 28.0328H8.12178L17.6718 13.3413C15.9306 14.0568 14.6086 13.9482 13.8526 14.9491Z" fill="#1A5319"/>
<path d="M28.8373 9.2402C28.8895 9.10888 28.8414 8.95862 28.7224 8.88199C28.6034 8.80608 28.4468 8.82507 28.3493 8.92759L27.2441 10.091L28.4427 10.2261L28.8373 9.2402Z" fill="#1A5319"/>
<path d="M27.3789 12.8866L24.8583 12.6028L24.4653 13.0163L26.6334 14.7509L27.3789 12.8866Z" fill="#1A5319"/>
<path d="M28.1254 11.0189L26.5329 10.8398L25.5693 11.8536L27.696 12.0929L28.1254 11.0189Z" fill="#1A5319"/>
</svg>
