<svg width="36" height="37" viewBox="0 0 36 37" fill="none" xmlns="http://www.w3.org/2000/svg">
<rect y="0.434082" width="36" height="36" rx="4" fill="#D6EFD8"/>
<path fill-rule="evenodd" clip-rule="evenodd" d="M26.4499 16.4625C26.1141 13.0175 24.0774 7.60083 17.7832 7.60083C11.4891 7.60083 9.45239 13.0175 9.11656 16.4625C7.93844 16.9096 7.16134 18.0407 7.16653 19.3008V20.8175C7.16653 22.4928 8.52463 23.8508 10.1999 23.8508C11.8752 23.8508 13.2332 22.4928 13.2332 20.8175V19.3008C13.2278 18.0679 12.4792 16.9601 11.3374 16.495C11.5541 14.5017 12.6157 9.7675 17.7832 9.7675C22.9507 9.7675 24.0016 14.5017 24.2182 16.495C23.0787 16.9611 22.3339 18.0697 22.3332 19.3008V20.8175C22.3379 21.9821 23.0066 23.0419 24.0557 23.5475C23.6007 24.4033 22.4416 25.5625 19.5924 25.9092C19.0229 25.0443 17.921 24.7034 16.9625 25.0955C16.0041 25.4875 15.4571 26.503 15.6569 27.519C15.8568 28.5351 16.7477 29.2675 17.7832 29.2675C18.6015 29.263 19.3474 28.7978 19.7116 28.065C24.3591 27.5342 25.8432 25.14 26.3091 23.7317C27.5693 23.3234 28.4169 22.1421 28.3999 20.8175V19.3008C28.4051 18.0407 27.628 16.9096 26.4499 16.4625ZM11.0666 20.8175C11.0666 21.2961 10.6785 21.6842 10.1999 21.6842C9.72124 21.6842 9.33322 21.2961 9.33322 20.8175V19.3008C9.33322 18.9912 9.49841 18.7051 9.76656 18.5503C10.0347 18.3955 10.3651 18.3955 10.6332 18.5503C10.9014 18.7051 11.0666 18.9912 11.0666 19.3008V20.8175ZM24.4999 19.3008C24.4999 18.8222 24.8879 18.4342 25.3666 18.4342C25.8452 18.4342 26.2332 18.8222 26.2332 19.3008V20.8175C26.2332 21.2961 25.8452 21.6842 25.3666 21.6842C24.8879 21.6842 24.4999 21.2961 24.4999 20.8175V19.3008Z" fill="#1A5319"/>
</svg>
