<svg width="36" height="37" viewBox="0 0 36 37" fill="none" xmlns="http://www.w3.org/2000/svg">
<rect y="0.434082" width="36" height="36" rx="4" fill="#D6EFD8"/>
<path d="M28.9688 11.1217C27.8467 11.1217 26.9375 12.0317 26.9375 13.1529C26.9375 13.3837 26.9846 13.6006 27.0545 13.807L22.1031 18.0702C21.7562 17.7931 21.3223 17.6208 20.8438 17.6208C20.2913 17.6208 19.7924 17.8427 19.4268 18.2002L15.5479 16.2583C15.4723 15.2053 14.6038 14.3708 13.5312 14.3708C12.41 14.3708 11.5 15.2808 11.5 16.4021C11.5 16.7092 11.5731 16.9968 11.695 17.2577L7.74056 21.8174C7.51875 21.7345 7.28231 21.6825 7.03125 21.6825C5.90919 21.6825 5 22.5917 5 23.7138C5 24.8358 5.90919 25.745 7.03125 25.745C8.15331 25.745 9.0625 24.8358 9.0625 23.7138C9.0625 23.444 9.00725 23.1865 8.91138 22.9508L12.93 18.3318C13.1217 18.3911 13.32 18.4325 13.5312 18.4325C14.1219 18.4325 14.6501 18.1758 15.0214 17.772L18.8149 19.674C18.8288 20.7847 19.7306 21.6817 20.8438 21.6817C21.9658 21.6817 22.875 20.7725 22.875 19.6505C22.875 19.6147 22.8661 19.5806 22.8644 19.5448L28.1481 15.0054C28.3992 15.1167 28.6754 15.1809 28.9688 15.1809C30.0908 15.1809 31 14.2717 31 13.1497C31 12.0276 30.0908 11.1184 28.9688 11.1184V11.1217Z" fill="#1A5319"/>
</svg>
