<svg width="36" height="37" viewBox="0 0 36 37" fill="none" xmlns="http://www.w3.org/2000/svg">
<rect y="0.434082" width="36" height="36" rx="4" fill="#D6EFD8"/>
<g clip-path="url(#clip0_361_2364)">
<path fill-rule="evenodd" clip-rule="evenodd" d="M17.3475 21.9465C18.4247 24.2016 18.0294 26.9843 16.1616 28.8521C13.7924 31.2212 9.95124 31.2212 7.58206 28.8521C5.21288 26.4829 5.21288 22.6417 7.58206 20.2725C9.44879 18.4058 12.2294 18.0099 14.4837 19.0848L19.7944 13.7742C18.8011 11.7941 18.9537 9.48422 20.1913 7.76768C21.4289 6.05114 23.5495 5.20789 25.7057 5.57493C26.0765 5.63741 26.3912 5.90246 26.5185 6.2596C26.6458 6.61673 26.5639 7.00463 26.307 7.26159L24.5431 9.02541C24.3817 9.18766 24.2866 9.40543 24.2752 9.63939L24.1951 11.2037C24.1804 11.4952 24.2967 11.7848 24.5123 11.9942C24.728 12.2036 25.0207 12.3109 25.311 12.2871L26.8117 12.1677C27.034 12.1491 27.2393 12.0548 27.3936 11.9003L29.1683 10.1257C29.4253 9.86871 29.8132 9.78681 30.1703 9.91411C30.5274 10.0414 30.7925 10.3561 30.855 10.7269C31.2235 12.8835 30.3806 15.0052 28.6636 16.2431C26.9466 17.481 24.6358 17.633 22.6557 16.6382L17.3475 21.9465ZM13.9555 22.4787L11.0255 21.6936L8.88058 23.8385L9.66567 26.7685L12.5956 27.5535L14.7405 25.4086L13.9555 22.4787Z" fill="#1A5319"/>
</g>
<defs>
<clipPath id="clip0_361_2364">
<rect width="26" height="26" fill="white" transform="translate(5 5.43408)"/>
</clipPath>
</defs>
</svg>
